<?xml version="1.0" encoding="utf-8" standalone="no"?>
<!DOCTYPE svg PUBLIC "-//W3C//DTD SVG 1.1//EN"
  "http://www.w3.org/Graphics/SVG/1.1/DTD/svg11.dtd">
<svg xmlns:xlink="http://www.w3.org/1999/xlink" width="619.215pt" height="454.865pt" viewBox="0 0 619.215 454.865" xmlns="http://www.w3.org/2000/svg" version="1.1">
 <metadata>
  <rdf:RDF xmlns:dc="http://purl.org/dc/elements/1.1/" xmlns:cc="http://creativecommons.org/ns#" xmlns:rdf="http://www.w3.org/1999/02/22-rdf-syntax-ns#">
   <cc:Work>
    <dc:type rdf:resource="http://purl.org/dc/dcmitype/StillImage"/>
    <dc:date>2022-12-20T11:51:04.806609</dc:date>
    <dc:format>image/svg+xml</dc:format>
    <dc:creator>
     <cc:Agent>
      <dc:title>Matplotlib v3.6.2, https://matplotlib.org/</dc:title>
     </cc:Agent>
    </dc:creator>
   </cc:Work>
  </rdf:RDF>
 </metadata>
 <defs>
  <style type="text/css">*{stroke-linejoin: round; stroke-linecap: butt}</style>
 </defs>
 <g id="figure_1">
  <g id="patch_1">
   <path d="M 0 454.865 
L 619.215 454.865 
L 619.215 0 
L 0 0 
z
" style="fill: #ffffff"/>
  </g>
  <g id="axes_1">
   <g id="patch_2">
    <path d="M 54.015 413.4375 
L 612.015 413.4375 
L 612.015 25.3575 
L 54.015 25.3575 
z
" style="fill: #ffffff"/>
   </g>
   <g id="matplotlib.axis_1">
    <g id="xtick_1">
     <g id="line2d_1">
      <defs>
       <path id="mbfae2c80e3" d="M 0 0 
L 0 3.5 
" style="stroke: #000000; stroke-width: 0.8"/>
      </defs>
      <g>
       <use xlink:href="#mbfae2c80e3" x="78.077937" y="413.4375" style="stroke: #000000; stroke-width: 0.8"/>
      </g>
     </g>
     <g id="text_1">
      <!-- 2014-05 -->
      <g transform="translate(57.186531 428.035937) scale(0.1 -0.1)">
       <defs>
        <path id="DejaVuSans-32" d="M 1228 531 
L 3431 531 
L 3431 0 
L 469 0 
L 469 531 
Q 828 903 1448 1529 
Q 2069 2156 2228 2338 
Q 2531 2678 2651 2914 
Q 2772 3150 2772 3378 
Q 2772 3750 2511 3984 
Q 2250 4219 1831 4219 
Q 1534 4219 1204 4116 
Q 875 4013 500 3803 
L 500 4441 
Q 881 4594 1212 4672 
Q 1544 4750 1819 4750 
Q 2544 4750 2975 4387 
Q 3406 4025 3406 3419 
Q 3406 3131 3298 2873 
Q 3191 2616 2906 2266 
Q 2828 2175 2409 1742 
Q 1991 1309 1228 531 
z
" transform="scale(0.015625)"/>
        <path id="DejaVuSans-30" d="M 2034 4250 
Q 1547 4250 1301 3770 
Q 1056 3291 1056 2328 
Q 1056 1369 1301 889 
Q 1547 409 2034 409 
Q 2525 409 2770 889 
Q 3016 1369 3016 2328 
Q 3016 3291 2770 3770 
Q 2525 4250 2034 4250 
z
M 2034 4750 
Q 2819 4750 3233 4129 
Q 3647 3509 3647 2328 
Q 3647 1150 3233 529 
Q 2819 -91 2034 -91 
Q 1250 -91 836 529 
Q 422 1150 422 2328 
Q 422 3509 836 4129 
Q 1250 4750 2034 4750 
z
" transform="scale(0.015625)"/>
        <path id="DejaVuSans-31" d="M 794 531 
L 1825 531 
L 1825 4091 
L 703 3866 
L 703 4441 
L 1819 4666 
L 2450 4666 
L 2450 531 
L 3481 531 
L 3481 0 
L 794 0 
L 794 531 
z
" transform="scale(0.015625)"/>
        <path id="DejaVuSans-34" d="M 2419 4116 
L 825 1625 
L 2419 1625 
L 2419 4116 
z
M 2253 4666 
L 3047 4666 
L 3047 1625 
L 3713 1625 
L 3713 1100 
L 3047 1100 
L 3047 0 
L 2419 0 
L 2419 1100 
L 313 1100 
L 313 1709 
L 2253 4666 
z
" transform="scale(0.015625)"/>
        <path id="DejaVuSans-2d" d="M 313 2009 
L 1997 2009 
L 1997 1497 
L 313 1497 
L 313 2009 
z
" transform="scale(0.015625)"/>
        <path id="DejaVuSans-35" d="M 691 4666 
L 3169 4666 
L 3169 4134 
L 1269 4134 
L 1269 2991 
Q 1406 3038 1543 3061 
Q 1681 3084 1819 3084 
Q 2600 3084 3056 2656 
Q 3513 2228 3513 1497 
Q 3513 744 3044 326 
Q 2575 -91 1722 -91 
Q 1428 -91 1123 -41 
Q 819 9 494 109 
L 494 744 
Q 775 591 1075 516 
Q 1375 441 1709 441 
Q 2250 441 2565 725 
Q 2881 1009 2881 1497 
Q 2881 1984 2565 2268 
Q 2250 2553 1709 2553 
Q 1456 2553 1204 2497 
Q 953 2441 691 2322 
L 691 4666 
z
" transform="scale(0.015625)"/>
       </defs>
       <use xlink:href="#DejaVuSans-32"/>
       <use xlink:href="#DejaVuSans-30" x="63.623047"/>
       <use xlink:href="#DejaVuSans-31" x="127.246094"/>
       <use xlink:href="#DejaVuSans-34" x="190.869141"/>
       <use xlink:href="#DejaVuSans-2d" x="254.492188"/>
       <use xlink:href="#DejaVuSans-30" x="290.576172"/>
       <use xlink:href="#DejaVuSans-35" x="354.199219"/>
      </g>
     </g>
    </g>
    <g id="xtick_2">
     <g id="line2d_2">
      <g>
       <use xlink:href="#mbfae2c80e3" x="157.420594" y="413.4375" style="stroke: #000000; stroke-width: 0.8"/>
      </g>
     </g>
     <g id="text_2">
      <!-- 2014-07 -->
      <g transform="translate(136.529188 428.035937) scale(0.1 -0.1)">
       <defs>
        <path id="DejaVuSans-37" d="M 525 4666 
L 3525 4666 
L 3525 4397 
L 1831 0 
L 1172 0 
L 2766 4134 
L 525 4134 
L 525 4666 
z
" transform="scale(0.015625)"/>
       </defs>
       <use xlink:href="#DejaVuSans-32"/>
       <use xlink:href="#DejaVuSans-30" x="63.623047"/>
       <use xlink:href="#DejaVuSans-31" x="127.246094"/>
       <use xlink:href="#DejaVuSans-34" x="190.869141"/>
       <use xlink:href="#DejaVuSans-2d" x="254.492188"/>
       <use xlink:href="#DejaVuSans-30" x="290.576172"/>
       <use xlink:href="#DejaVuSans-37" x="354.199219"/>
      </g>
     </g>
    </g>
    <g id="xtick_3">
     <g id="line2d_3">
      <g>
       <use xlink:href="#mbfae2c80e3" x="238.063951" y="413.4375" style="stroke: #000000; stroke-width: 0.8"/>
      </g>
     </g>
     <g id="text_3">
      <!-- 2014-09 -->
      <g transform="translate(217.172545 428.035937) scale(0.1 -0.1)">
       <defs>
        <path id="DejaVuSans-39" d="M 703 97 
L 703 672 
Q 941 559 1184 500 
Q 1428 441 1663 441 
Q 2288 441 2617 861 
Q 2947 1281 2994 2138 
Q 2813 1869 2534 1725 
Q 2256 1581 1919 1581 
Q 1219 1581 811 2004 
Q 403 2428 403 3163 
Q 403 3881 828 4315 
Q 1253 4750 1959 4750 
Q 2769 4750 3195 4129 
Q 3622 3509 3622 2328 
Q 3622 1225 3098 567 
Q 2575 -91 1691 -91 
Q 1453 -91 1209 -44 
Q 966 3 703 97 
z
M 1959 2075 
Q 2384 2075 2632 2365 
Q 2881 2656 2881 3163 
Q 2881 3666 2632 3958 
Q 2384 4250 1959 4250 
Q 1534 4250 1286 3958 
Q 1038 3666 1038 3163 
Q 1038 2656 1286 2365 
Q 1534 2075 1959 2075 
z
" transform="scale(0.015625)"/>
       </defs>
       <use xlink:href="#DejaVuSans-32"/>
       <use xlink:href="#DejaVuSans-30" x="63.623047"/>
       <use xlink:href="#DejaVuSans-31" x="127.246094"/>
       <use xlink:href="#DejaVuSans-34" x="190.869141"/>
       <use xlink:href="#DejaVuSans-2d" x="254.492188"/>
       <use xlink:href="#DejaVuSans-30" x="290.576172"/>
       <use xlink:href="#DejaVuSans-39" x="354.199219"/>
      </g>
     </g>
    </g>
    <g id="xtick_4">
     <g id="line2d_4">
      <g>
       <use xlink:href="#mbfae2c80e3" x="317.406608" y="413.4375" style="stroke: #000000; stroke-width: 0.8"/>
      </g>
     </g>
     <g id="text_4">
      <!-- 2014-11 -->
      <g transform="translate(296.515202 428.035937) scale(0.1 -0.1)">
       <use xlink:href="#DejaVuSans-32"/>
       <use xlink:href="#DejaVuSans-30" x="63.623047"/>
       <use xlink:href="#DejaVuSans-31" x="127.246094"/>
       <use xlink:href="#DejaVuSans-34" x="190.869141"/>
       <use xlink:href="#DejaVuSans-2d" x="254.492188"/>
       <use xlink:href="#DejaVuSans-31" x="290.576172"/>
       <use xlink:href="#DejaVuSans-31" x="354.199219"/>
      </g>
     </g>
    </g>
    <g id="xtick_5">
     <g id="line2d_5">
      <g>
       <use xlink:href="#mbfae2c80e3" x="396.749266" y="413.4375" style="stroke: #000000; stroke-width: 0.8"/>
      </g>
     </g>
     <g id="text_5">
      <!-- 2015-01 -->
      <g transform="translate(375.857859 428.035937) scale(0.1 -0.1)">
       <use xlink:href="#DejaVuSans-32"/>
       <use xlink:href="#DejaVuSans-30" x="63.623047"/>
       <use xlink:href="#DejaVuSans-31" x="127.246094"/>
       <use xlink:href="#DejaVuSans-35" x="190.869141"/>
       <use xlink:href="#DejaVuSans-2d" x="254.492188"/>
       <use xlink:href="#DejaVuSans-30" x="290.576172"/>
       <use xlink:href="#DejaVuSans-31" x="354.199219"/>
      </g>
     </g>
    </g>
    <g id="xtick_6">
     <g id="line2d_6">
      <g>
       <use xlink:href="#mbfae2c80e3" x="473.490524" y="413.4375" style="stroke: #000000; stroke-width: 0.8"/>
      </g>
     </g>
     <g id="text_6">
      <!-- 2015-03 -->
      <g transform="translate(452.599118 428.035937) scale(0.1 -0.1)">
       <defs>
        <path id="DejaVuSans-33" d="M 2597 2516 
Q 3050 2419 3304 2112 
Q 3559 1806 3559 1356 
Q 3559 666 3084 287 
Q 2609 -91 1734 -91 
Q 1441 -91 1130 -33 
Q 819 25 488 141 
L 488 750 
Q 750 597 1062 519 
Q 1375 441 1716 441 
Q 2309 441 2620 675 
Q 2931 909 2931 1356 
Q 2931 1769 2642 2001 
Q 2353 2234 1838 2234 
L 1294 2234 
L 1294 2753 
L 1863 2753 
Q 2328 2753 2575 2939 
Q 2822 3125 2822 3475 
Q 2822 3834 2567 4026 
Q 2313 4219 1838 4219 
Q 1578 4219 1281 4162 
Q 984 4106 628 3988 
L 628 4550 
Q 988 4650 1302 4700 
Q 1616 4750 1894 4750 
Q 2613 4750 3031 4423 
Q 3450 4097 3450 3541 
Q 3450 3153 3228 2886 
Q 3006 2619 2597 2516 
z
" transform="scale(0.015625)"/>
       </defs>
       <use xlink:href="#DejaVuSans-32"/>
       <use xlink:href="#DejaVuSans-30" x="63.623047"/>
       <use xlink:href="#DejaVuSans-31" x="127.246094"/>
       <use xlink:href="#DejaVuSans-35" x="190.869141"/>
       <use xlink:href="#DejaVuSans-2d" x="254.492188"/>
       <use xlink:href="#DejaVuSans-30" x="290.576172"/>
       <use xlink:href="#DejaVuSans-33" x="354.199219"/>
      </g>
     </g>
    </g>
    <g id="xtick_7">
     <g id="line2d_7">
      <g>
       <use xlink:href="#mbfae2c80e3" x="552.833182" y="413.4375" style="stroke: #000000; stroke-width: 0.8"/>
      </g>
     </g>
     <g id="text_7">
      <!-- 2015-05 -->
      <g transform="translate(531.941776 428.035937) scale(0.1 -0.1)">
       <use xlink:href="#DejaVuSans-32"/>
       <use xlink:href="#DejaVuSans-30" x="63.623047"/>
       <use xlink:href="#DejaVuSans-31" x="127.246094"/>
       <use xlink:href="#DejaVuSans-35" x="190.869141"/>
       <use xlink:href="#DejaVuSans-2d" x="254.492188"/>
       <use xlink:href="#DejaVuSans-30" x="290.576172"/>
       <use xlink:href="#DejaVuSans-35" x="354.199219"/>
      </g>
     </g>
    </g>
    <g id="text_8">
     <!-- date -->
     <g transform="translate(317.23 444.753438) scale(0.14 -0.14)">
      <defs>
       <path id="DejaVuSans-64" d="M 2906 2969 
L 2906 4863 
L 3481 4863 
L 3481 0 
L 2906 0 
L 2906 525 
Q 2725 213 2448 61 
Q 2172 -91 1784 -91 
Q 1150 -91 751 415 
Q 353 922 353 1747 
Q 353 2572 751 3078 
Q 1150 3584 1784 3584 
Q 2172 3584 2448 3432 
Q 2725 3281 2906 2969 
z
M 947 1747 
Q 947 1113 1208 752 
Q 1469 391 1925 391 
Q 2381 391 2643 752 
Q 2906 1113 2906 1747 
Q 2906 2381 2643 2742 
Q 2381 3103 1925 3103 
Q 1469 3103 1208 2742 
Q 947 2381 947 1747 
z
" transform="scale(0.015625)"/>
       <path id="DejaVuSans-61" d="M 2194 1759 
Q 1497 1759 1228 1600 
Q 959 1441 959 1056 
Q 959 750 1161 570 
Q 1363 391 1709 391 
Q 2188 391 2477 730 
Q 2766 1069 2766 1631 
L 2766 1759 
L 2194 1759 
z
M 3341 1997 
L 3341 0 
L 2766 0 
L 2766 531 
Q 2569 213 2275 61 
Q 1981 -91 1556 -91 
Q 1019 -91 701 211 
Q 384 513 384 1019 
Q 384 1609 779 1909 
Q 1175 2209 1959 2209 
L 2766 2209 
L 2766 2266 
Q 2766 2663 2505 2880 
Q 2244 3097 1772 3097 
Q 1472 3097 1187 3025 
Q 903 2953 641 2809 
L 641 3341 
Q 956 3463 1253 3523 
Q 1550 3584 1831 3584 
Q 2591 3584 2966 3190 
Q 3341 2797 3341 1997 
z
" transform="scale(0.015625)"/>
       <path id="DejaVuSans-74" d="M 1172 4494 
L 1172 3500 
L 2356 3500 
L 2356 3053 
L 1172 3053 
L 1172 1153 
Q 1172 725 1289 603 
Q 1406 481 1766 481 
L 2356 481 
L 2356 0 
L 1766 0 
Q 1100 0 847 248 
Q 594 497 594 1153 
L 594 3053 
L 172 3053 
L 172 3500 
L 594 3500 
L 594 4494 
L 1172 4494 
z
" transform="scale(0.015625)"/>
       <path id="DejaVuSans-65" d="M 3597 1894 
L 3597 1613 
L 953 1613 
Q 991 1019 1311 708 
Q 1631 397 2203 397 
Q 2534 397 2845 478 
Q 3156 559 3463 722 
L 3463 178 
Q 3153 47 2828 -22 
Q 2503 -91 2169 -91 
Q 1331 -91 842 396 
Q 353 884 353 1716 
Q 353 2575 817 3079 
Q 1281 3584 2069 3584 
Q 2775 3584 3186 3129 
Q 3597 2675 3597 1894 
z
M 3022 2063 
Q 3016 2534 2758 2815 
Q 2500 3097 2075 3097 
Q 1594 3097 1305 2825 
Q 1016 2553 972 2059 
L 3022 2063 
z
" transform="scale(0.015625)"/>
      </defs>
      <use xlink:href="#DejaVuSans-64"/>
      <use xlink:href="#DejaVuSans-61" x="63.476562"/>
      <use xlink:href="#DejaVuSans-74" x="124.755859"/>
      <use xlink:href="#DejaVuSans-65" x="163.964844"/>
     </g>
    </g>
   </g>
   <g id="matplotlib.axis_2">
    <g id="ytick_1">
     <g id="line2d_8">
      <defs>
       <path id="m781c514ae7" d="M 0 0 
L -3.5 0 
" style="stroke: #000000; stroke-width: 0.8"/>
      </defs>
      <g>
       <use xlink:href="#m781c514ae7" x="54.015" y="389.716432" style="stroke: #000000; stroke-width: 0.8"/>
      </g>
     </g>
     <g id="text_9">
      <!-- 0.25 -->
      <g transform="translate(24.749375 393.515651) scale(0.1 -0.1)">
       <defs>
        <path id="DejaVuSans-2e" d="M 684 794 
L 1344 794 
L 1344 0 
L 684 0 
L 684 794 
z
" transform="scale(0.015625)"/>
       </defs>
       <use xlink:href="#DejaVuSans-30"/>
       <use xlink:href="#DejaVuSans-2e" x="63.623047"/>
       <use xlink:href="#DejaVuSans-32" x="95.410156"/>
       <use xlink:href="#DejaVuSans-35" x="159.033203"/>
      </g>
     </g>
    </g>
    <g id="ytick_2">
     <g id="line2d_9">
      <g>
       <use xlink:href="#m781c514ae7" x="54.015" y="340.675565" style="stroke: #000000; stroke-width: 0.8"/>
      </g>
     </g>
     <g id="text_10">
      <!-- 0.50 -->
      <g transform="translate(24.749375 344.474784) scale(0.1 -0.1)">
       <use xlink:href="#DejaVuSans-30"/>
       <use xlink:href="#DejaVuSans-2e" x="63.623047"/>
       <use xlink:href="#DejaVuSans-35" x="95.410156"/>
       <use xlink:href="#DejaVuSans-30" x="159.033203"/>
      </g>
     </g>
    </g>
    <g id="ytick_3">
     <g id="line2d_10">
      <g>
       <use xlink:href="#m781c514ae7" x="54.015" y="291.634698" style="stroke: #000000; stroke-width: 0.8"/>
      </g>
     </g>
     <g id="text_11">
      <!-- 0.75 -->
      <g transform="translate(24.749375 295.433916) scale(0.1 -0.1)">
       <use xlink:href="#DejaVuSans-30"/>
       <use xlink:href="#DejaVuSans-2e" x="63.623047"/>
       <use xlink:href="#DejaVuSans-37" x="95.410156"/>
       <use xlink:href="#DejaVuSans-35" x="159.033203"/>
      </g>
     </g>
    </g>
    <g id="ytick_4">
     <g id="line2d_11">
      <g>
       <use xlink:href="#m781c514ae7" x="54.015" y="242.59383" style="stroke: #000000; stroke-width: 0.8"/>
      </g>
     </g>
     <g id="text_12">
      <!-- 1.00 -->
      <g transform="translate(24.749375 246.393049) scale(0.1 -0.1)">
       <use xlink:href="#DejaVuSans-31"/>
       <use xlink:href="#DejaVuSans-2e" x="63.623047"/>
       <use xlink:href="#DejaVuSans-30" x="95.410156"/>
       <use xlink:href="#DejaVuSans-30" x="159.033203"/>
      </g>
     </g>
    </g>
    <g id="ytick_5">
     <g id="line2d_12">
      <g>
       <use xlink:href="#m781c514ae7" x="54.015" y="193.552963" style="stroke: #000000; stroke-width: 0.8"/>
      </g>
     </g>
     <g id="text_13">
      <!-- 1.25 -->
      <g transform="translate(24.749375 197.352182) scale(0.1 -0.1)">
       <use xlink:href="#DejaVuSans-31"/>
       <use xlink:href="#DejaVuSans-2e" x="63.623047"/>
       <use xlink:href="#DejaVuSans-32" x="95.410156"/>
       <use xlink:href="#DejaVuSans-35" x="159.033203"/>
      </g>
     </g>
    </g>
    <g id="ytick_6">
     <g id="line2d_13">
      <g>
       <use xlink:href="#m781c514ae7" x="54.015" y="144.512095" style="stroke: #000000; stroke-width: 0.8"/>
      </g>
     </g>
     <g id="text_14">
      <!-- 1.50 -->
      <g transform="translate(24.749375 148.311314) scale(0.1 -0.1)">
       <use xlink:href="#DejaVuSans-31"/>
       <use xlink:href="#DejaVuSans-2e" x="63.623047"/>
       <use xlink:href="#DejaVuSans-35" x="95.410156"/>
       <use xlink:href="#DejaVuSans-30" x="159.033203"/>
      </g>
     </g>
    </g>
    <g id="ytick_7">
     <g id="line2d_14">
      <g>
       <use xlink:href="#m781c514ae7" x="54.015" y="95.471228" style="stroke: #000000; stroke-width: 0.8"/>
      </g>
     </g>
     <g id="text_15">
      <!-- 1.75 -->
      <g transform="translate(24.749375 99.270447) scale(0.1 -0.1)">
       <use xlink:href="#DejaVuSans-31"/>
       <use xlink:href="#DejaVuSans-2e" x="63.623047"/>
       <use xlink:href="#DejaVuSans-37" x="95.410156"/>
       <use xlink:href="#DejaVuSans-35" x="159.033203"/>
      </g>
     </g>
    </g>
    <g id="ytick_8">
     <g id="line2d_15">
      <g>
       <use xlink:href="#m781c514ae7" x="54.015" y="46.430361" style="stroke: #000000; stroke-width: 0.8"/>
      </g>
     </g>
     <g id="text_16">
      <!-- 2.00 -->
      <g transform="translate(24.749375 50.229579) scale(0.1 -0.1)">
       <use xlink:href="#DejaVuSans-32"/>
       <use xlink:href="#DejaVuSans-2e" x="63.623047"/>
       <use xlink:href="#DejaVuSans-30" x="95.410156"/>
       <use xlink:href="#DejaVuSans-30" x="159.033203"/>
      </g>
     </g>
    </g>
    <g id="text_17">
     <!-- mean price -->
     <g transform="translate(17.837812 258.896094) rotate(-90) scale(0.14 -0.14)">
      <defs>
       <path id="DejaVuSans-6d" d="M 3328 2828 
Q 3544 3216 3844 3400 
Q 4144 3584 4550 3584 
Q 5097 3584 5394 3201 
Q 5691 2819 5691 2113 
L 5691 0 
L 5113 0 
L 5113 2094 
Q 5113 2597 4934 2840 
Q 4756 3084 4391 3084 
Q 3944 3084 3684 2787 
Q 3425 2491 3425 1978 
L 3425 0 
L 2847 0 
L 2847 2094 
Q 2847 2600 2669 2842 
Q 2491 3084 2119 3084 
Q 1678 3084 1418 2786 
Q 1159 2488 1159 1978 
L 1159 0 
L 581 0 
L 581 3500 
L 1159 3500 
L 1159 2956 
Q 1356 3278 1631 3431 
Q 1906 3584 2284 3584 
Q 2666 3584 2933 3390 
Q 3200 3197 3328 2828 
z
" transform="scale(0.015625)"/>
       <path id="DejaVuSans-6e" d="M 3513 2113 
L 3513 0 
L 2938 0 
L 2938 2094 
Q 2938 2591 2744 2837 
Q 2550 3084 2163 3084 
Q 1697 3084 1428 2787 
Q 1159 2491 1159 1978 
L 1159 0 
L 581 0 
L 581 3500 
L 1159 3500 
L 1159 2956 
Q 1366 3272 1645 3428 
Q 1925 3584 2291 3584 
Q 2894 3584 3203 3211 
Q 3513 2838 3513 2113 
z
" transform="scale(0.015625)"/>
       <path id="DejaVuSans-20" transform="scale(0.015625)"/>
       <path id="DejaVuSans-70" d="M 1159 525 
L 1159 -1331 
L 581 -1331 
L 581 3500 
L 1159 3500 
L 1159 2969 
Q 1341 3281 1617 3432 
Q 1894 3584 2278 3584 
Q 2916 3584 3314 3078 
Q 3713 2572 3713 1747 
Q 3713 922 3314 415 
Q 2916 -91 2278 -91 
Q 1894 -91 1617 61 
Q 1341 213 1159 525 
z
M 3116 1747 
Q 3116 2381 2855 2742 
Q 2594 3103 2138 3103 
Q 1681 3103 1420 2742 
Q 1159 2381 1159 1747 
Q 1159 1113 1420 752 
Q 1681 391 2138 391 
Q 2594 391 2855 752 
Q 3116 1113 3116 1747 
z
" transform="scale(0.015625)"/>
       <path id="DejaVuSans-72" d="M 2631 2963 
Q 2534 3019 2420 3045 
Q 2306 3072 2169 3072 
Q 1681 3072 1420 2755 
Q 1159 2438 1159 1844 
L 1159 0 
L 581 0 
L 581 3500 
L 1159 3500 
L 1159 2956 
Q 1341 3275 1631 3429 
Q 1922 3584 2338 3584 
Q 2397 3584 2469 3576 
Q 2541 3569 2628 3553 
L 2631 2963 
z
" transform="scale(0.015625)"/>
       <path id="DejaVuSans-69" d="M 603 3500 
L 1178 3500 
L 1178 0 
L 603 0 
L 603 3500 
z
M 603 4863 
L 1178 4863 
L 1178 4134 
L 603 4134 
L 603 4863 
z
" transform="scale(0.015625)"/>
       <path id="DejaVuSans-63" d="M 3122 3366 
L 3122 2828 
Q 2878 2963 2633 3030 
Q 2388 3097 2138 3097 
Q 1578 3097 1268 2742 
Q 959 2388 959 1747 
Q 959 1106 1268 751 
Q 1578 397 2138 397 
Q 2388 397 2633 464 
Q 2878 531 3122 666 
L 3122 134 
Q 2881 22 2623 -34 
Q 2366 -91 2075 -91 
Q 1284 -91 818 406 
Q 353 903 353 1747 
Q 353 2603 823 3093 
Q 1294 3584 2113 3584 
Q 2378 3584 2631 3529 
Q 2884 3475 3122 3366 
z
" transform="scale(0.015625)"/>
      </defs>
      <use xlink:href="#DejaVuSans-6d"/>
      <use xlink:href="#DejaVuSans-65" x="97.412109"/>
      <use xlink:href="#DejaVuSans-61" x="158.935547"/>
      <use xlink:href="#DejaVuSans-6e" x="220.214844"/>
      <use xlink:href="#DejaVuSans-20" x="283.59375"/>
      <use xlink:href="#DejaVuSans-70" x="315.380859"/>
      <use xlink:href="#DejaVuSans-72" x="378.857422"/>
      <use xlink:href="#DejaVuSans-69" x="419.970703"/>
      <use xlink:href="#DejaVuSans-63" x="447.753906"/>
      <use xlink:href="#DejaVuSans-65" x="502.734375"/>
     </g>
    </g>
    <g id="text_18">
     <!-- 1e6 -->
     <g transform="translate(54.015 22.3575) scale(0.1 -0.1)">
      <defs>
       <path id="DejaVuSans-36" d="M 2113 2584 
Q 1688 2584 1439 2293 
Q 1191 2003 1191 1497 
Q 1191 994 1439 701 
Q 1688 409 2113 409 
Q 2538 409 2786 701 
Q 3034 994 3034 1497 
Q 3034 2003 2786 2293 
Q 2538 2584 2113 2584 
z
M 3366 4563 
L 3366 3988 
Q 3128 4100 2886 4159 
Q 2644 4219 2406 4219 
Q 1781 4219 1451 3797 
Q 1122 3375 1075 2522 
Q 1259 2794 1537 2939 
Q 1816 3084 2150 3084 
Q 2853 3084 3261 2657 
Q 3669 2231 3669 1497 
Q 3669 778 3244 343 
Q 2819 -91 2113 -91 
Q 1303 -91 875 529 
Q 447 1150 447 2328 
Q 447 3434 972 4092 
Q 1497 4750 2381 4750 
Q 2619 4750 2861 4703 
Q 3103 4656 3366 4563 
z
" transform="scale(0.015625)"/>
      </defs>
      <use xlink:href="#DejaVuSans-31"/>
      <use xlink:href="#DejaVuSans-65" x="63.623047"/>
      <use xlink:href="#DejaVuSans-36" x="125.146484"/>
     </g>
    </g>
   </g>
   <g id="line2d_16">
    <path d="M 79.378636 335.525981 
L 80.679336 347.154844 
L 81.980035 325.631789 
L 83.280734 324.798367 
L 84.581434 333.99661 
L 85.882133 332.771521 
L 87.182832 335.055656 
L 88.483531 333.787212 
L 89.784231 344.408556 
L 91.08493 320.02936 
L 92.385629 315.655133 
L 93.686329 314.916802 
L 94.987028 334.103079 
L 96.287727 339.692085 
L 97.588427 343.224459 
L 98.889126 358.330277 
L 100.189825 343.626704 
L 101.490524 336.593259 
L 102.791224 336.410873 
L 104.091923 332.567757 
L 105.392622 335.700256 
L 106.693322 337.724811 
L 107.994021 303.57927 
L 109.29472 366.36121 
L 110.59542 351.110236 
L 111.896119 326.629048 
L 113.196818 331.894141 
L 114.497517 324.619684 
L 115.798217 312.847891 
L 117.098916 328.126399 
L 118.399615 283.073563 
L 119.700315 330.55693 
L 121.001014 337.740763 
L 122.301713 332.292023 
L 123.602413 337.065402 
L 124.903112 322.107516 
L 126.203811 334.226691 
L 127.50451 296.888348 
L 128.80521 335.857689 
L 130.105909 335.288758 
L 131.406608 318.134885 
L 132.707308 321.490483 
L 134.008007 327.598327 
L 135.308706 322.352622 
L 136.609406 322.265623 
L 137.910105 332.361017 
L 139.210804 320.665315 
L 140.511503 324.790764 
L 141.812203 326.195436 
L 143.112902 316.892163 
L 144.413601 303.787025 
L 145.714301 322.052296 
L 147.015 338.706294 
L 148.315699 327.373926 
L 149.616399 332.124957 
L 150.917098 334.4761 
L 152.217797 342.837515 
L 153.518497 324.510186 
L 154.819196 351.91293 
L 156.119895 321.610544 
L 157.420594 313.846606 
L 158.721294 317.736614 
L 160.021993 316.699374 
L 161.322692 318.607175 
L 162.623392 262.455382 
L 163.924091 288.365307 
L 165.22479 333.671303 
L 166.52549 329.806751 
L 167.826189 327.478582 
L 169.126888 325.783857 
L 170.427587 334.760945 
L 171.728287 350.114297 
L 173.028986 362.645874 
L 174.329685 322.303684 
L 175.630385 340.12004 
L 176.931084 344.761751 
L 179.532483 340.156546 
L 180.833182 354.987652 
L 182.133881 286.385608 
L 183.43458 342.284069 
L 184.73528 345.701232 
L 186.035979 337.822105 
L 187.336678 336.198203 
L 188.637378 326.145298 
L 189.938077 353.193246 
L 191.238776 382.594129 
L 192.539476 333.264747 
L 193.840175 328.626518 
L 195.140874 327.524065 
L 196.441573 338.451641 
L 197.742273 326.45616 
L 199.042972 337.866504 
L 200.343671 332.829026 
L 201.644371 325.514729 
L 202.94507 331.687811 
L 204.245769 341.051483 
L 205.546469 344.44776 
L 206.847168 329.048981 
L 208.147867 368.241437 
L 209.448566 349.960571 
L 210.749266 326.645723 
L 212.049965 337.205072 
L 213.350664 334.971105 
L 214.651364 328.091943 
L 215.952063 310.928767 
L 217.252762 327.488476 
L 218.553462 313.457884 
L 219.854161 348.143849 
L 221.15486 336.606599 
L 222.455559 338.30473 
L 223.756259 339.649256 
L 225.056958 338.460043 
L 226.357657 317.784269 
L 227.658357 366.667225 
L 228.959056 330.52762 
L 230.259755 338.947942 
L 231.560455 333.852344 
L 232.861154 326.823155 
L 234.161853 329.251779 
L 235.462552 312.820352 
L 236.763252 332.930377 
L 238.063951 315.832312 
L 239.36465 329.801277 
L 240.66535 332.108645 
L 241.966049 334.826976 
L 243.266748 332.731061 
L 244.567448 370.590494 
L 245.868147 362.116232 
L 247.168846 345.119116 
L 248.469545 331.887869 
L 249.770245 346.571155 
L 251.070944 301.997543 
L 252.371643 331.319581 
L 253.672343 335.791095 
L 254.973042 331.701086 
L 256.273741 332.835217 
L 257.574441 347.180135 
L 258.87514 335.358051 
L 260.175839 334.474433 
L 261.476538 329.029314 
L 262.777238 354.66202 
L 264.077937 310.564472 
L 265.378636 333.269359 
L 266.679336 331.786235 
L 267.980035 344.63458 
L 269.280734 350.603864 
L 270.581434 339.50462 
L 271.882133 278.844839 
L 273.182832 358.261293 
L 274.483531 326.708258 
L 275.784231 346.404591 
L 277.08493 319.765349 
L 278.385629 348.835767 
L 279.686329 337.200163 
L 282.287727 380.889076 
L 283.588427 334.781237 
L 284.889126 327.868104 
L 286.189825 330.427878 
L 287.490524 333.330167 
L 288.791224 331.672298 
L 290.091923 42.9975 
L 291.392622 340.453246 
L 292.693322 309.07113 
L 293.994021 324.744909 
L 295.29472 330.45046 
L 296.59542 338.964712 
L 297.896119 337.184335 
L 299.196818 284.540119 
L 300.497517 349.946741 
L 301.798217 323.583599 
L 303.098916 344.25416 
L 304.399615 335.05634 
L 305.700315 344.819945 
L 307.001014 342.406322 
L 308.301713 368.096276 
L 309.602413 313.70554 
L 310.903112 344.19511 
L 312.203811 335.661714 
L 313.50451 330.563473 
L 314.80521 328.111895 
L 316.105909 328.890554 
L 317.406608 301.580186 
L 318.707308 276.922437 
L 320.008007 347.227291 
L 321.308706 351.546275 
L 322.609406 340.010889 
L 323.910105 335.022534 
L 325.210804 338.849349 
L 326.511503 320.706163 
L 327.812203 352.053046 
L 329.112902 329.60916 
L 330.413601 326.354416 
L 333.015 343.535732 
L 334.315699 328.756218 
L 335.616399 287.466224 
L 336.917098 374.194148 
L 338.217797 345.009608 
L 339.518497 336.588528 
L 340.819196 338.273141 
L 342.119895 333.682748 
L 343.420594 332.025682 
L 344.721294 332.544589 
L 346.021993 358.612508 
L 347.322692 334.196447 
L 348.623392 331.359298 
L 349.924091 317.532032 
L 352.52549 303.899819 
L 353.826189 385.502514 
L 355.126888 242.59383 
L 356.427587 327.22626 
L 357.728287 348.98511 
L 359.028986 329.295117 
L 360.329685 349.581288 
L 361.630385 330.860111 
L 362.931084 349.535615 
L 364.231783 302.178484 
L 365.532483 325.002069 
L 366.833182 323.426627 
L 368.133881 338.194055 
L 369.43458 337.18223 
L 370.73528 336.918637 
L 372.035979 270.669727 
L 373.336678 370.569014 
L 374.637378 335.843279 
L 375.938077 321.379192 
L 377.238776 339.929807 
L 378.539476 343.799866 
L 379.840175 330.20619 
L 381.140874 361.517934 
L 382.441573 285.55363 
L 383.742273 347.355019 
L 385.042972 340.525036 
L 386.343671 351.708811 
L 388.94507 350.84437 
L 390.245769 357.839869 
L 392.847168 335.533492 
L 394.147867 313.711391 
L 395.448566 339.802921 
L 398.049965 337.651596 
L 401.952063 329.129882 
L 403.252762 356.479568 
L 404.553462 321.178133 
L 405.854161 332.548993 
L 407.15486 319.485453 
L 408.455559 375.004172 
L 411.056958 319.012883 
L 412.357657 336.948482 
L 413.658357 341.056161 
L 414.959056 343.82303 
L 416.259755 333.601333 
L 417.560455 392.658884 
L 420.161853 348.585857 
L 421.462552 346.677677 
L 422.763252 342.982272 
L 424.063951 330.152053 
L 425.36465 340.978172 
L 426.66535 306.592162 
L 427.966049 344.794998 
L 429.266748 337.384106 
L 430.567448 333.355536 
L 431.868147 342.388111 
L 433.168846 355.179345 
L 434.469545 301.644779 
L 435.770245 303.404506 
L 437.070944 389.078901 
L 438.371643 330.45025 
L 439.672343 340.280351 
L 442.273741 347.411088 
L 443.574441 336.378308 
L 444.87514 377.096583 
L 447.476538 320.77586 
L 448.777238 325.041925 
L 450.077937 346.96134 
L 451.378636 316.868537 
L 452.679336 336.379198 
L 453.980035 324.655548 
L 455.280734 395.7975 
L 456.581434 340.958367 
L 457.882133 348.331282 
L 459.182832 338.182447 
L 460.483531 342.368328 
L 461.784231 351.380846 
L 463.08493 260.183155 
L 464.385629 354.319489 
L 465.686329 343.232106 
L 466.987028 346.385311 
L 468.287727 329.767912 
L 469.588427 347.687997 
L 470.889126 338.134201 
L 472.189825 330.292633 
L 473.490524 349.032129 
L 474.791224 315.892135 
L 476.091923 318.784656 
L 477.392622 325.794212 
L 478.693322 337.855265 
L 479.994021 329.67098 
L 481.29472 368.344422 
L 482.59542 372.06172 
L 483.896119 346.162214 
L 485.196818 334.957037 
L 486.497517 338.848592 
L 487.798217 341.474408 
L 489.098916 322.356116 
L 490.399615 332.601804 
L 491.700315 341.198668 
L 493.001014 333.532653 
L 494.301713 331.282767 
L 495.602413 339.583058 
L 496.903112 337.499571 
L 498.203811 329.641863 
L 499.50451 333.849076 
L 500.80521 297.519602 
L 502.105909 337.211996 
L 503.406608 327.554375 
L 504.707308 329.431746 
L 506.008007 331.930543 
L 507.308706 334.799825 
L 508.609406 342.749994 
L 509.910105 356.351478 
L 511.210804 325.730289 
L 512.511503 320.423708 
L 513.812203 319.77803 
L 515.112902 319.311663 
L 516.413601 335.304494 
L 517.714301 291.536616 
L 519.015 351.33378 
L 520.315699 343.40978 
L 521.616399 315.47731 
L 522.917098 326.181256 
L 524.217797 335.521871 
L 525.518497 326.201221 
L 526.819196 348.565863 
L 528.119895 336.771158 
L 529.420594 313.201587 
L 530.721294 336.079815 
L 532.021993 319.445677 
L 533.322692 336.999709 
L 534.623392 332.384912 
L 535.924091 334.123705 
L 537.22479 315.533947 
L 538.52549 326.060905 
L 539.826189 319.79419 
L 541.126888 331.198488 
L 542.427587 323.669633 
L 543.728287 327.296121 
L 545.028986 328.409218 
L 546.329685 335.188118 
L 547.630385 331.795067 
L 548.931084 331.816075 
L 550.231783 332.955388 
L 551.532483 342.789612 
L 552.833182 322.969578 
L 554.133881 305.539418 
L 555.43458 326.061387 
L 556.73528 334.472917 
L 558.035979 332.953876 
L 559.336678 334.387545 
L 560.637378 323.990863 
L 561.938077 331.000347 
L 563.238776 313.441537 
L 564.539476 332.338618 
L 565.840175 316.791388 
L 567.140874 331.344289 
L 568.441573 338.395386 
L 569.742273 320.385147 
L 571.042972 350.483739 
L 582.749266 351.366474 
L 586.651364 181.783155 
L 586.651364 181.783155 
" clip-path="url(#pffcd29f504)" style="fill: none; stroke: #1f77b4; stroke-width: 1.5; stroke-linecap: square"/>
   </g>
   <g id="patch_3">
    <path d="M 54.015 413.4375 
L 54.015 25.3575 
" style="fill: none; stroke: #000000; stroke-width: 0.8; stroke-linejoin: miter; stroke-linecap: square"/>
   </g>
   <g id="patch_4">
    <path d="M 612.015 413.4375 
L 612.015 25.3575 
" style="fill: none; stroke: #000000; stroke-width: 0.8; stroke-linejoin: miter; stroke-linecap: square"/>
   </g>
   <g id="patch_5">
    <path d="M 54.015 413.4375 
L 612.015 413.4375 
" style="fill: none; stroke: #000000; stroke-width: 0.8; stroke-linejoin: miter; stroke-linecap: square"/>
   </g>
   <g id="patch_6">
    <path d="M 54.015 25.3575 
L 612.015 25.3575 
" style="fill: none; stroke: #000000; stroke-width: 0.8; stroke-linejoin: miter; stroke-linecap: square"/>
   </g>
   <g id="text_19">
    <!-- Dependence of price on date -->
    <g transform="translate(216.67125 19.3575) scale(0.16 -0.16)">
     <defs>
      <path id="DejaVuSans-44" d="M 1259 4147 
L 1259 519 
L 2022 519 
Q 2988 519 3436 956 
Q 3884 1394 3884 2338 
Q 3884 3275 3436 3711 
Q 2988 4147 2022 4147 
L 1259 4147 
z
M 628 4666 
L 1925 4666 
Q 3281 4666 3915 4102 
Q 4550 3538 4550 2338 
Q 4550 1131 3912 565 
Q 3275 0 1925 0 
L 628 0 
L 628 4666 
z
" transform="scale(0.015625)"/>
      <path id="DejaVuSans-6f" d="M 1959 3097 
Q 1497 3097 1228 2736 
Q 959 2375 959 1747 
Q 959 1119 1226 758 
Q 1494 397 1959 397 
Q 2419 397 2687 759 
Q 2956 1122 2956 1747 
Q 2956 2369 2687 2733 
Q 2419 3097 1959 3097 
z
M 1959 3584 
Q 2709 3584 3137 3096 
Q 3566 2609 3566 1747 
Q 3566 888 3137 398 
Q 2709 -91 1959 -91 
Q 1206 -91 779 398 
Q 353 888 353 1747 
Q 353 2609 779 3096 
Q 1206 3584 1959 3584 
z
" transform="scale(0.015625)"/>
      <path id="DejaVuSans-66" d="M 2375 4863 
L 2375 4384 
L 1825 4384 
Q 1516 4384 1395 4259 
Q 1275 4134 1275 3809 
L 1275 3500 
L 2222 3500 
L 2222 3053 
L 1275 3053 
L 1275 0 
L 697 0 
L 697 3053 
L 147 3053 
L 147 3500 
L 697 3500 
L 697 3744 
Q 697 4328 969 4595 
Q 1241 4863 1831 4863 
L 2375 4863 
z
" transform="scale(0.015625)"/>
     </defs>
     <use xlink:href="#DejaVuSans-44"/>
     <use xlink:href="#DejaVuSans-65" x="77.001953"/>
     <use xlink:href="#DejaVuSans-70" x="138.525391"/>
     <use xlink:href="#DejaVuSans-65" x="202.001953"/>
     <use xlink:href="#DejaVuSans-6e" x="263.525391"/>
     <use xlink:href="#DejaVuSans-64" x="326.904297"/>
     <use xlink:href="#DejaVuSans-65" x="390.380859"/>
     <use xlink:href="#DejaVuSans-6e" x="451.904297"/>
     <use xlink:href="#DejaVuSans-63" x="515.283203"/>
     <use xlink:href="#DejaVuSans-65" x="570.263672"/>
     <use xlink:href="#DejaVuSans-20" x="631.787109"/>
     <use xlink:href="#DejaVuSans-6f" x="663.574219"/>
     <use xlink:href="#DejaVuSans-66" x="724.755859"/>
     <use xlink:href="#DejaVuSans-20" x="759.960938"/>
     <use xlink:href="#DejaVuSans-70" x="791.748047"/>
     <use xlink:href="#DejaVuSans-72" x="855.224609"/>
     <use xlink:href="#DejaVuSans-69" x="896.337891"/>
     <use xlink:href="#DejaVuSans-63" x="924.121094"/>
     <use xlink:href="#DejaVuSans-65" x="979.101562"/>
     <use xlink:href="#DejaVuSans-20" x="1040.625"/>
     <use xlink:href="#DejaVuSans-6f" x="1072.412109"/>
     <use xlink:href="#DejaVuSans-6e" x="1133.59375"/>
     <use xlink:href="#DejaVuSans-20" x="1196.972656"/>
     <use xlink:href="#DejaVuSans-64" x="1228.759766"/>
     <use xlink:href="#DejaVuSans-61" x="1292.236328"/>
     <use xlink:href="#DejaVuSans-74" x="1353.515625"/>
     <use xlink:href="#DejaVuSans-65" x="1392.724609"/>
    </g>
   </g>
  </g>
 </g>
 <defs>
  <clipPath id="pffcd29f504">
   <rect x="54.015" y="25.3575" width="558" height="388.08"/>
  </clipPath>
 </defs>
</svg>
