<?xml version="1.0" encoding="utf-8" standalone="no"?>
<!DOCTYPE svg PUBLIC "-//W3C//DTD SVG 1.1//EN"
  "http://www.w3.org/Graphics/SVG/1.1/DTD/svg11.dtd">
<svg xmlns:xlink="http://www.w3.org/1999/xlink" width="1193.124375pt" height="487.496875pt" viewBox="0 0 1193.124375 487.496875" xmlns="http://www.w3.org/2000/svg" version="1.1">
 <metadata>
  <rdf:RDF xmlns:dc="http://purl.org/dc/elements/1.1/" xmlns:cc="http://creativecommons.org/ns#" xmlns:rdf="http://www.w3.org/1999/02/22-rdf-syntax-ns#">
   <cc:Work>
    <dc:type rdf:resource="http://purl.org/dc/dcmitype/StillImage"/>
    <dc:date>2022-12-20T16:56:31.136444</dc:date>
    <dc:format>image/svg+xml</dc:format>
    <dc:creator>
     <cc:Agent>
      <dc:title>Matplotlib v3.6.2, https://matplotlib.org/</dc:title>
     </cc:Agent>
    </dc:creator>
   </cc:Work>
  </rdf:RDF>
 </metadata>
 <defs>
  <style type="text/css">*{stroke-linejoin: round; stroke-linecap: butt}</style>
 </defs>
 <g id="figure_1">
  <g id="patch_1">
   <path d="M 0 487.496875 
L 1193.124375 487.496875 
L 1193.124375 0 
L 0 0 
z
" style="fill: #ffffff"/>
  </g>
  <g id="axes_1">
   <g id="patch_2">
    <path d="M 69.924375 445.68 
L 577.197102 445.68 
L 577.197102 57.6 
L 69.924375 57.6 
z
" style="fill: #ffffff"/>
   </g>
   <g id="PathCollection_1">
    <defs>
     <path id="m5a82d95dfa" d="M 0 3 
C 0.795609 3 1.55874 2.683901 2.12132 2.12132 
C 2.683901 1.55874 3 0.795609 3 0 
C 3 -0.795609 2.683901 -1.55874 2.12132 -2.12132 
C 1.55874 -2.683901 0.795609 -3 0 -3 
C -0.795609 -3 -1.55874 -2.683901 -2.12132 -2.12132 
C -2.683901 -1.55874 -3 -0.795609 -3 0 
C -3 0.795609 -2.683901 1.55874 -2.12132 2.12132 
C -1.55874 2.683901 -0.795609 3 0 3 
z
" style="stroke: #ff0000; stroke-width: 3"/>
    </defs>
    <g clip-path="url(#p120f7c6ac9)">
     <use xlink:href="#m5a82d95dfa" x="276.890539" y="424.451357" style="fill: #ff0000; stroke: #ff0000; stroke-width: 3"/>
    </g>
   </g>
   <g id="matplotlib.axis_1">
    <g id="xtick_1">
     <g id="line2d_1">
      <path d="M 92.058064 445.68 
L 92.058064 57.6 
" clip-path="url(#p120f7c6ac9)" style="fill: none; stroke: #b0b0b0; stroke-opacity: 0.5; stroke-width: 0.8; stroke-linecap: square"/>
     </g>
     <g id="line2d_2">
      <defs>
       <path id="m1a87044830" d="M 0 0 
L 0 3.5 
" style="stroke: #000000; stroke-width: 0.8"/>
      </defs>
      <g>
       <use xlink:href="#m1a87044830" x="92.058064" y="445.68" style="stroke: #000000; stroke-width: 0.8"/>
      </g>
     </g>
     <g id="text_1">
      <!-- 0 -->
      <g transform="translate(88.876814 460.278437) scale(0.1 -0.1)">
       <defs>
        <path id="DejaVuSans-30" d="M 2034 4250 
Q 1547 4250 1301 3770 
Q 1056 3291 1056 2328 
Q 1056 1369 1301 889 
Q 1547 409 2034 409 
Q 2525 409 2770 889 
Q 3016 1369 3016 2328 
Q 3016 3291 2770 3770 
Q 2525 4250 2034 4250 
z
M 2034 4750 
Q 2819 4750 3233 4129 
Q 3647 3509 3647 2328 
Q 3647 1150 3233 529 
Q 2819 -91 2034 -91 
Q 1250 -91 836 529 
Q 422 1150 422 2328 
Q 422 3509 836 4129 
Q 1250 4750 2034 4750 
z
" transform="scale(0.015625)"/>
       </defs>
       <use xlink:href="#DejaVuSans-30"/>
      </g>
     </g>
    </g>
    <g id="xtick_2">
     <g id="line2d_3">
      <path d="M 184.474301 445.68 
L 184.474301 57.6 
" clip-path="url(#p120f7c6ac9)" style="fill: none; stroke: #b0b0b0; stroke-opacity: 0.5; stroke-width: 0.8; stroke-linecap: square"/>
     </g>
     <g id="line2d_4">
      <g>
       <use xlink:href="#m1a87044830" x="184.474301" y="445.68" style="stroke: #000000; stroke-width: 0.8"/>
      </g>
     </g>
     <g id="text_2">
      <!-- 200 -->
      <g transform="translate(174.930551 460.278437) scale(0.1 -0.1)">
       <defs>
        <path id="DejaVuSans-32" d="M 1228 531 
L 3431 531 
L 3431 0 
L 469 0 
L 469 531 
Q 828 903 1448 1529 
Q 2069 2156 2228 2338 
Q 2531 2678 2651 2914 
Q 2772 3150 2772 3378 
Q 2772 3750 2511 3984 
Q 2250 4219 1831 4219 
Q 1534 4219 1204 4116 
Q 875 4013 500 3803 
L 500 4441 
Q 881 4594 1212 4672 
Q 1544 4750 1819 4750 
Q 2544 4750 2975 4387 
Q 3406 4025 3406 3419 
Q 3406 3131 3298 2873 
Q 3191 2616 2906 2266 
Q 2828 2175 2409 1742 
Q 1991 1309 1228 531 
z
" transform="scale(0.015625)"/>
       </defs>
       <use xlink:href="#DejaVuSans-32"/>
       <use xlink:href="#DejaVuSans-30" x="63.623047"/>
       <use xlink:href="#DejaVuSans-30" x="127.246094"/>
      </g>
     </g>
    </g>
    <g id="xtick_3">
     <g id="line2d_5">
      <path d="M 276.890539 445.68 
L 276.890539 57.6 
" clip-path="url(#p120f7c6ac9)" style="fill: none; stroke: #b0b0b0; stroke-opacity: 0.5; stroke-width: 0.8; stroke-linecap: square"/>
     </g>
     <g id="line2d_6">
      <g>
       <use xlink:href="#m1a87044830" x="276.890539" y="445.68" style="stroke: #000000; stroke-width: 0.8"/>
      </g>
     </g>
     <g id="text_3">
      <!-- 400 -->
      <g transform="translate(267.346789 460.278437) scale(0.1 -0.1)">
       <defs>
        <path id="DejaVuSans-34" d="M 2419 4116 
L 825 1625 
L 2419 1625 
L 2419 4116 
z
M 2253 4666 
L 3047 4666 
L 3047 1625 
L 3713 1625 
L 3713 1100 
L 3047 1100 
L 3047 0 
L 2419 0 
L 2419 1100 
L 313 1100 
L 313 1709 
L 2253 4666 
z
" transform="scale(0.015625)"/>
       </defs>
       <use xlink:href="#DejaVuSans-34"/>
       <use xlink:href="#DejaVuSans-30" x="63.623047"/>
       <use xlink:href="#DejaVuSans-30" x="127.246094"/>
      </g>
     </g>
    </g>
    <g id="xtick_4">
     <g id="line2d_7">
      <path d="M 369.306776 445.68 
L 369.306776 57.6 
" clip-path="url(#p120f7c6ac9)" style="fill: none; stroke: #b0b0b0; stroke-opacity: 0.5; stroke-width: 0.8; stroke-linecap: square"/>
     </g>
     <g id="line2d_8">
      <g>
       <use xlink:href="#m1a87044830" x="369.306776" y="445.68" style="stroke: #000000; stroke-width: 0.8"/>
      </g>
     </g>
     <g id="text_4">
      <!-- 600 -->
      <g transform="translate(359.763026 460.278437) scale(0.1 -0.1)">
       <defs>
        <path id="DejaVuSans-36" d="M 2113 2584 
Q 1688 2584 1439 2293 
Q 1191 2003 1191 1497 
Q 1191 994 1439 701 
Q 1688 409 2113 409 
Q 2538 409 2786 701 
Q 3034 994 3034 1497 
Q 3034 2003 2786 2293 
Q 2538 2584 2113 2584 
z
M 3366 4563 
L 3366 3988 
Q 3128 4100 2886 4159 
Q 2644 4219 2406 4219 
Q 1781 4219 1451 3797 
Q 1122 3375 1075 2522 
Q 1259 2794 1537 2939 
Q 1816 3084 2150 3084 
Q 2853 3084 3261 2657 
Q 3669 2231 3669 1497 
Q 3669 778 3244 343 
Q 2819 -91 2113 -91 
Q 1303 -91 875 529 
Q 447 1150 447 2328 
Q 447 3434 972 4092 
Q 1497 4750 2381 4750 
Q 2619 4750 2861 4703 
Q 3103 4656 3366 4563 
z
" transform="scale(0.015625)"/>
       </defs>
       <use xlink:href="#DejaVuSans-36"/>
       <use xlink:href="#DejaVuSans-30" x="63.623047"/>
       <use xlink:href="#DejaVuSans-30" x="127.246094"/>
      </g>
     </g>
    </g>
    <g id="xtick_5">
     <g id="line2d_9">
      <path d="M 461.723014 445.68 
L 461.723014 57.6 
" clip-path="url(#p120f7c6ac9)" style="fill: none; stroke: #b0b0b0; stroke-opacity: 0.5; stroke-width: 0.8; stroke-linecap: square"/>
     </g>
     <g id="line2d_10">
      <g>
       <use xlink:href="#m1a87044830" x="461.723014" y="445.68" style="stroke: #000000; stroke-width: 0.8"/>
      </g>
     </g>
     <g id="text_5">
      <!-- 800 -->
      <g transform="translate(452.179264 460.278437) scale(0.1 -0.1)">
       <defs>
        <path id="DejaVuSans-38" d="M 2034 2216 
Q 1584 2216 1326 1975 
Q 1069 1734 1069 1313 
Q 1069 891 1326 650 
Q 1584 409 2034 409 
Q 2484 409 2743 651 
Q 3003 894 3003 1313 
Q 3003 1734 2745 1975 
Q 2488 2216 2034 2216 
z
M 1403 2484 
Q 997 2584 770 2862 
Q 544 3141 544 3541 
Q 544 4100 942 4425 
Q 1341 4750 2034 4750 
Q 2731 4750 3128 4425 
Q 3525 4100 3525 3541 
Q 3525 3141 3298 2862 
Q 3072 2584 2669 2484 
Q 3125 2378 3379 2068 
Q 3634 1759 3634 1313 
Q 3634 634 3220 271 
Q 2806 -91 2034 -91 
Q 1263 -91 848 271 
Q 434 634 434 1313 
Q 434 1759 690 2068 
Q 947 2378 1403 2484 
z
M 1172 3481 
Q 1172 3119 1398 2916 
Q 1625 2713 2034 2713 
Q 2441 2713 2670 2916 
Q 2900 3119 2900 3481 
Q 2900 3844 2670 4047 
Q 2441 4250 2034 4250 
Q 1625 4250 1398 4047 
Q 1172 3844 1172 3481 
z
" transform="scale(0.015625)"/>
       </defs>
       <use xlink:href="#DejaVuSans-38"/>
       <use xlink:href="#DejaVuSans-30" x="63.623047"/>
       <use xlink:href="#DejaVuSans-30" x="127.246094"/>
      </g>
     </g>
    </g>
    <g id="xtick_6">
     <g id="line2d_11">
      <path d="M 554.139251 445.68 
L 554.139251 57.6 
" clip-path="url(#p120f7c6ac9)" style="fill: none; stroke: #b0b0b0; stroke-opacity: 0.5; stroke-width: 0.8; stroke-linecap: square"/>
     </g>
     <g id="line2d_12">
      <g>
       <use xlink:href="#m1a87044830" x="554.139251" y="445.68" style="stroke: #000000; stroke-width: 0.8"/>
      </g>
     </g>
     <g id="text_6">
      <!-- 1000 -->
      <g transform="translate(541.414251 460.278437) scale(0.1 -0.1)">
       <defs>
        <path id="DejaVuSans-31" d="M 794 531 
L 1825 531 
L 1825 4091 
L 703 3866 
L 703 4441 
L 1819 4666 
L 2450 4666 
L 2450 531 
L 3481 531 
L 3481 0 
L 794 0 
L 794 531 
z
" transform="scale(0.015625)"/>
       </defs>
       <use xlink:href="#DejaVuSans-31"/>
       <use xlink:href="#DejaVuSans-30" x="63.623047"/>
       <use xlink:href="#DejaVuSans-30" x="127.246094"/>
       <use xlink:href="#DejaVuSans-30" x="190.869141"/>
      </g>
     </g>
    </g>
    <g id="text_7">
     <!-- num_trees -->
     <g transform="translate(286.644489 476.606562) scale(0.14 -0.14)">
      <defs>
       <path id="DejaVuSans-6e" d="M 3513 2113 
L 3513 0 
L 2938 0 
L 2938 2094 
Q 2938 2591 2744 2837 
Q 2550 3084 2163 3084 
Q 1697 3084 1428 2787 
Q 1159 2491 1159 1978 
L 1159 0 
L 581 0 
L 581 3500 
L 1159 3500 
L 1159 2956 
Q 1366 3272 1645 3428 
Q 1925 3584 2291 3584 
Q 2894 3584 3203 3211 
Q 3513 2838 3513 2113 
z
" transform="scale(0.015625)"/>
       <path id="DejaVuSans-75" d="M 544 1381 
L 544 3500 
L 1119 3500 
L 1119 1403 
Q 1119 906 1312 657 
Q 1506 409 1894 409 
Q 2359 409 2629 706 
Q 2900 1003 2900 1516 
L 2900 3500 
L 3475 3500 
L 3475 0 
L 2900 0 
L 2900 538 
Q 2691 219 2414 64 
Q 2138 -91 1772 -91 
Q 1169 -91 856 284 
Q 544 659 544 1381 
z
M 1991 3584 
L 1991 3584 
z
" transform="scale(0.015625)"/>
       <path id="DejaVuSans-6d" d="M 3328 2828 
Q 3544 3216 3844 3400 
Q 4144 3584 4550 3584 
Q 5097 3584 5394 3201 
Q 5691 2819 5691 2113 
L 5691 0 
L 5113 0 
L 5113 2094 
Q 5113 2597 4934 2840 
Q 4756 3084 4391 3084 
Q 3944 3084 3684 2787 
Q 3425 2491 3425 1978 
L 3425 0 
L 2847 0 
L 2847 2094 
Q 2847 2600 2669 2842 
Q 2491 3084 2119 3084 
Q 1678 3084 1418 2786 
Q 1159 2488 1159 1978 
L 1159 0 
L 581 0 
L 581 3500 
L 1159 3500 
L 1159 2956 
Q 1356 3278 1631 3431 
Q 1906 3584 2284 3584 
Q 2666 3584 2933 3390 
Q 3200 3197 3328 2828 
z
" transform="scale(0.015625)"/>
       <path id="DejaVuSans-5f" d="M 3263 -1063 
L 3263 -1509 
L -63 -1509 
L -63 -1063 
L 3263 -1063 
z
" transform="scale(0.015625)"/>
       <path id="DejaVuSans-74" d="M 1172 4494 
L 1172 3500 
L 2356 3500 
L 2356 3053 
L 1172 3053 
L 1172 1153 
Q 1172 725 1289 603 
Q 1406 481 1766 481 
L 2356 481 
L 2356 0 
L 1766 0 
Q 1100 0 847 248 
Q 594 497 594 1153 
L 594 3053 
L 172 3053 
L 172 3500 
L 594 3500 
L 594 4494 
L 1172 4494 
z
" transform="scale(0.015625)"/>
       <path id="DejaVuSans-72" d="M 2631 2963 
Q 2534 3019 2420 3045 
Q 2306 3072 2169 3072 
Q 1681 3072 1420 2755 
Q 1159 2438 1159 1844 
L 1159 0 
L 581 0 
L 581 3500 
L 1159 3500 
L 1159 2956 
Q 1341 3275 1631 3429 
Q 1922 3584 2338 3584 
Q 2397 3584 2469 3576 
Q 2541 3569 2628 3553 
L 2631 2963 
z
" transform="scale(0.015625)"/>
       <path id="DejaVuSans-65" d="M 3597 1894 
L 3597 1613 
L 953 1613 
Q 991 1019 1311 708 
Q 1631 397 2203 397 
Q 2534 397 2845 478 
Q 3156 559 3463 722 
L 3463 178 
Q 3153 47 2828 -22 
Q 2503 -91 2169 -91 
Q 1331 -91 842 396 
Q 353 884 353 1716 
Q 353 2575 817 3079 
Q 1281 3584 2069 3584 
Q 2775 3584 3186 3129 
Q 3597 2675 3597 1894 
z
M 3022 2063 
Q 3016 2534 2758 2815 
Q 2500 3097 2075 3097 
Q 1594 3097 1305 2825 
Q 1016 2553 972 2059 
L 3022 2063 
z
" transform="scale(0.015625)"/>
       <path id="DejaVuSans-73" d="M 2834 3397 
L 2834 2853 
Q 2591 2978 2328 3040 
Q 2066 3103 1784 3103 
Q 1356 3103 1142 2972 
Q 928 2841 928 2578 
Q 928 2378 1081 2264 
Q 1234 2150 1697 2047 
L 1894 2003 
Q 2506 1872 2764 1633 
Q 3022 1394 3022 966 
Q 3022 478 2636 193 
Q 2250 -91 1575 -91 
Q 1294 -91 989 -36 
Q 684 19 347 128 
L 347 722 
Q 666 556 975 473 
Q 1284 391 1588 391 
Q 1994 391 2212 530 
Q 2431 669 2431 922 
Q 2431 1156 2273 1281 
Q 2116 1406 1581 1522 
L 1381 1569 
Q 847 1681 609 1914 
Q 372 2147 372 2553 
Q 372 3047 722 3315 
Q 1072 3584 1716 3584 
Q 2034 3584 2315 3537 
Q 2597 3491 2834 3397 
z
" transform="scale(0.015625)"/>
      </defs>
      <use xlink:href="#DejaVuSans-6e"/>
      <use xlink:href="#DejaVuSans-75" x="63.378906"/>
      <use xlink:href="#DejaVuSans-6d" x="126.757812"/>
      <use xlink:href="#DejaVuSans-5f" x="224.169922"/>
      <use xlink:href="#DejaVuSans-74" x="274.169922"/>
      <use xlink:href="#DejaVuSans-72" x="313.378906"/>
      <use xlink:href="#DejaVuSans-65" x="352.242188"/>
      <use xlink:href="#DejaVuSans-65" x="413.765625"/>
      <use xlink:href="#DejaVuSans-73" x="475.289062"/>
     </g>
    </g>
   </g>
   <g id="matplotlib.axis_2">
    <g id="ytick_1">
     <g id="line2d_13">
      <path d="M 69.924375 409.852033 
L 577.197102 409.852033 
" clip-path="url(#p120f7c6ac9)" style="fill: none; stroke: #b0b0b0; stroke-opacity: 0.5; stroke-width: 0.8; stroke-linecap: square"/>
     </g>
     <g id="line2d_14">
      <defs>
       <path id="mf010095c82" d="M 0 0 
L -3.5 0 
" style="stroke: #000000; stroke-width: 0.8"/>
      </defs>
      <g>
       <use xlink:href="#mf010095c82" x="69.924375" y="409.852033" style="stroke: #000000; stroke-width: 0.8"/>
      </g>
     </g>
     <g id="text_8">
      <!-- 160000 -->
      <g transform="translate(24.749375 413.651252) scale(0.1 -0.1)">
       <use xlink:href="#DejaVuSans-31"/>
       <use xlink:href="#DejaVuSans-36" x="63.623047"/>
       <use xlink:href="#DejaVuSans-30" x="127.246094"/>
       <use xlink:href="#DejaVuSans-30" x="190.869141"/>
       <use xlink:href="#DejaVuSans-30" x="254.492188"/>
       <use xlink:href="#DejaVuSans-30" x="318.115234"/>
      </g>
     </g>
    </g>
    <g id="ytick_2">
     <g id="line2d_15">
      <path d="M 69.924375 366.579277 
L 577.197102 366.579277 
" clip-path="url(#p120f7c6ac9)" style="fill: none; stroke: #b0b0b0; stroke-opacity: 0.5; stroke-width: 0.8; stroke-linecap: square"/>
     </g>
     <g id="line2d_16">
      <g>
       <use xlink:href="#mf010095c82" x="69.924375" y="366.579277" style="stroke: #000000; stroke-width: 0.8"/>
      </g>
     </g>
     <g id="text_9">
      <!-- 170000 -->
      <g transform="translate(24.749375 370.378496) scale(0.1 -0.1)">
       <defs>
        <path id="DejaVuSans-37" d="M 525 4666 
L 3525 4666 
L 3525 4397 
L 1831 0 
L 1172 0 
L 2766 4134 
L 525 4134 
L 525 4666 
z
" transform="scale(0.015625)"/>
       </defs>
       <use xlink:href="#DejaVuSans-31"/>
       <use xlink:href="#DejaVuSans-37" x="63.623047"/>
       <use xlink:href="#DejaVuSans-30" x="127.246094"/>
       <use xlink:href="#DejaVuSans-30" x="190.869141"/>
       <use xlink:href="#DejaVuSans-30" x="254.492188"/>
       <use xlink:href="#DejaVuSans-30" x="318.115234"/>
      </g>
     </g>
    </g>
    <g id="ytick_3">
     <g id="line2d_17">
      <path d="M 69.924375 323.306522 
L 577.197102 323.306522 
" clip-path="url(#p120f7c6ac9)" style="fill: none; stroke: #b0b0b0; stroke-opacity: 0.5; stroke-width: 0.8; stroke-linecap: square"/>
     </g>
     <g id="line2d_18">
      <g>
       <use xlink:href="#mf010095c82" x="69.924375" y="323.306522" style="stroke: #000000; stroke-width: 0.8"/>
      </g>
     </g>
     <g id="text_10">
      <!-- 180000 -->
      <g transform="translate(24.749375 327.10574) scale(0.1 -0.1)">
       <use xlink:href="#DejaVuSans-31"/>
       <use xlink:href="#DejaVuSans-38" x="63.623047"/>
       <use xlink:href="#DejaVuSans-30" x="127.246094"/>
       <use xlink:href="#DejaVuSans-30" x="190.869141"/>
       <use xlink:href="#DejaVuSans-30" x="254.492188"/>
       <use xlink:href="#DejaVuSans-30" x="318.115234"/>
      </g>
     </g>
    </g>
    <g id="ytick_4">
     <g id="line2d_19">
      <path d="M 69.924375 280.033766 
L 577.197102 280.033766 
" clip-path="url(#p120f7c6ac9)" style="fill: none; stroke: #b0b0b0; stroke-opacity: 0.5; stroke-width: 0.8; stroke-linecap: square"/>
     </g>
     <g id="line2d_20">
      <g>
       <use xlink:href="#mf010095c82" x="69.924375" y="280.033766" style="stroke: #000000; stroke-width: 0.8"/>
      </g>
     </g>
     <g id="text_11">
      <!-- 190000 -->
      <g transform="translate(24.749375 283.832985) scale(0.1 -0.1)">
       <defs>
        <path id="DejaVuSans-39" d="M 703 97 
L 703 672 
Q 941 559 1184 500 
Q 1428 441 1663 441 
Q 2288 441 2617 861 
Q 2947 1281 2994 2138 
Q 2813 1869 2534 1725 
Q 2256 1581 1919 1581 
Q 1219 1581 811 2004 
Q 403 2428 403 3163 
Q 403 3881 828 4315 
Q 1253 4750 1959 4750 
Q 2769 4750 3195 4129 
Q 3622 3509 3622 2328 
Q 3622 1225 3098 567 
Q 2575 -91 1691 -91 
Q 1453 -91 1209 -44 
Q 966 3 703 97 
z
M 1959 2075 
Q 2384 2075 2632 2365 
Q 2881 2656 2881 3163 
Q 2881 3666 2632 3958 
Q 2384 4250 1959 4250 
Q 1534 4250 1286 3958 
Q 1038 3666 1038 3163 
Q 1038 2656 1286 2365 
Q 1534 2075 1959 2075 
z
" transform="scale(0.015625)"/>
       </defs>
       <use xlink:href="#DejaVuSans-31"/>
       <use xlink:href="#DejaVuSans-39" x="63.623047"/>
       <use xlink:href="#DejaVuSans-30" x="127.246094"/>
       <use xlink:href="#DejaVuSans-30" x="190.869141"/>
       <use xlink:href="#DejaVuSans-30" x="254.492188"/>
       <use xlink:href="#DejaVuSans-30" x="318.115234"/>
      </g>
     </g>
    </g>
    <g id="ytick_5">
     <g id="line2d_21">
      <path d="M 69.924375 236.76101 
L 577.197102 236.76101 
" clip-path="url(#p120f7c6ac9)" style="fill: none; stroke: #b0b0b0; stroke-opacity: 0.5; stroke-width: 0.8; stroke-linecap: square"/>
     </g>
     <g id="line2d_22">
      <g>
       <use xlink:href="#mf010095c82" x="69.924375" y="236.76101" style="stroke: #000000; stroke-width: 0.8"/>
      </g>
     </g>
     <g id="text_12">
      <!-- 200000 -->
      <g transform="translate(24.749375 240.560229) scale(0.1 -0.1)">
       <use xlink:href="#DejaVuSans-32"/>
       <use xlink:href="#DejaVuSans-30" x="63.623047"/>
       <use xlink:href="#DejaVuSans-30" x="127.246094"/>
       <use xlink:href="#DejaVuSans-30" x="190.869141"/>
       <use xlink:href="#DejaVuSans-30" x="254.492188"/>
       <use xlink:href="#DejaVuSans-30" x="318.115234"/>
      </g>
     </g>
    </g>
    <g id="ytick_6">
     <g id="line2d_23">
      <path d="M 69.924375 193.488254 
L 577.197102 193.488254 
" clip-path="url(#p120f7c6ac9)" style="fill: none; stroke: #b0b0b0; stroke-opacity: 0.5; stroke-width: 0.8; stroke-linecap: square"/>
     </g>
     <g id="line2d_24">
      <g>
       <use xlink:href="#mf010095c82" x="69.924375" y="193.488254" style="stroke: #000000; stroke-width: 0.8"/>
      </g>
     </g>
     <g id="text_13">
      <!-- 210000 -->
      <g transform="translate(24.749375 197.287473) scale(0.1 -0.1)">
       <use xlink:href="#DejaVuSans-32"/>
       <use xlink:href="#DejaVuSans-31" x="63.623047"/>
       <use xlink:href="#DejaVuSans-30" x="127.246094"/>
       <use xlink:href="#DejaVuSans-30" x="190.869141"/>
       <use xlink:href="#DejaVuSans-30" x="254.492188"/>
       <use xlink:href="#DejaVuSans-30" x="318.115234"/>
      </g>
     </g>
    </g>
    <g id="ytick_7">
     <g id="line2d_25">
      <path d="M 69.924375 150.215498 
L 577.197102 150.215498 
" clip-path="url(#p120f7c6ac9)" style="fill: none; stroke: #b0b0b0; stroke-opacity: 0.5; stroke-width: 0.8; stroke-linecap: square"/>
     </g>
     <g id="line2d_26">
      <g>
       <use xlink:href="#mf010095c82" x="69.924375" y="150.215498" style="stroke: #000000; stroke-width: 0.8"/>
      </g>
     </g>
     <g id="text_14">
      <!-- 220000 -->
      <g transform="translate(24.749375 154.014717) scale(0.1 -0.1)">
       <use xlink:href="#DejaVuSans-32"/>
       <use xlink:href="#DejaVuSans-32" x="63.623047"/>
       <use xlink:href="#DejaVuSans-30" x="127.246094"/>
       <use xlink:href="#DejaVuSans-30" x="190.869141"/>
       <use xlink:href="#DejaVuSans-30" x="254.492188"/>
       <use xlink:href="#DejaVuSans-30" x="318.115234"/>
      </g>
     </g>
    </g>
    <g id="ytick_8">
     <g id="line2d_27">
      <path d="M 69.924375 106.942743 
L 577.197102 106.942743 
" clip-path="url(#p120f7c6ac9)" style="fill: none; stroke: #b0b0b0; stroke-opacity: 0.5; stroke-width: 0.8; stroke-linecap: square"/>
     </g>
     <g id="line2d_28">
      <g>
       <use xlink:href="#mf010095c82" x="69.924375" y="106.942743" style="stroke: #000000; stroke-width: 0.8"/>
      </g>
     </g>
     <g id="text_15">
      <!-- 230000 -->
      <g transform="translate(24.749375 110.741961) scale(0.1 -0.1)">
       <defs>
        <path id="DejaVuSans-33" d="M 2597 2516 
Q 3050 2419 3304 2112 
Q 3559 1806 3559 1356 
Q 3559 666 3084 287 
Q 2609 -91 1734 -91 
Q 1441 -91 1130 -33 
Q 819 25 488 141 
L 488 750 
Q 750 597 1062 519 
Q 1375 441 1716 441 
Q 2309 441 2620 675 
Q 2931 909 2931 1356 
Q 2931 1769 2642 2001 
Q 2353 2234 1838 2234 
L 1294 2234 
L 1294 2753 
L 1863 2753 
Q 2328 2753 2575 2939 
Q 2822 3125 2822 3475 
Q 2822 3834 2567 4026 
Q 2313 4219 1838 4219 
Q 1578 4219 1281 4162 
Q 984 4106 628 3988 
L 628 4550 
Q 988 4650 1302 4700 
Q 1616 4750 1894 4750 
Q 2613 4750 3031 4423 
Q 3450 4097 3450 3541 
Q 3450 3153 3228 2886 
Q 3006 2619 2597 2516 
z
" transform="scale(0.015625)"/>
       </defs>
       <use xlink:href="#DejaVuSans-32"/>
       <use xlink:href="#DejaVuSans-33" x="63.623047"/>
       <use xlink:href="#DejaVuSans-30" x="127.246094"/>
       <use xlink:href="#DejaVuSans-30" x="190.869141"/>
       <use xlink:href="#DejaVuSans-30" x="254.492188"/>
       <use xlink:href="#DejaVuSans-30" x="318.115234"/>
      </g>
     </g>
    </g>
    <g id="ytick_9">
     <g id="line2d_29">
      <path d="M 69.924375 63.669987 
L 577.197102 63.669987 
" clip-path="url(#p120f7c6ac9)" style="fill: none; stroke: #b0b0b0; stroke-opacity: 0.5; stroke-width: 0.8; stroke-linecap: square"/>
     </g>
     <g id="line2d_30">
      <g>
       <use xlink:href="#mf010095c82" x="69.924375" y="63.669987" style="stroke: #000000; stroke-width: 0.8"/>
      </g>
     </g>
     <g id="text_16">
      <!-- 240000 -->
      <g transform="translate(24.749375 67.469206) scale(0.1 -0.1)">
       <use xlink:href="#DejaVuSans-32"/>
       <use xlink:href="#DejaVuSans-34" x="63.623047"/>
       <use xlink:href="#DejaVuSans-30" x="127.246094"/>
       <use xlink:href="#DejaVuSans-30" x="190.869141"/>
       <use xlink:href="#DejaVuSans-30" x="254.492188"/>
       <use xlink:href="#DejaVuSans-30" x="318.115234"/>
      </g>
     </g>
    </g>
    <g id="text_17">
     <!-- RMSE -->
     <g transform="translate(17.837813 271.410625) rotate(-90) scale(0.14 -0.14)">
      <defs>
       <path id="DejaVuSans-52" d="M 2841 2188 
Q 3044 2119 3236 1894 
Q 3428 1669 3622 1275 
L 4263 0 
L 3584 0 
L 2988 1197 
Q 2756 1666 2539 1819 
Q 2322 1972 1947 1972 
L 1259 1972 
L 1259 0 
L 628 0 
L 628 4666 
L 2053 4666 
Q 2853 4666 3247 4331 
Q 3641 3997 3641 3322 
Q 3641 2881 3436 2590 
Q 3231 2300 2841 2188 
z
M 1259 4147 
L 1259 2491 
L 2053 2491 
Q 2509 2491 2742 2702 
Q 2975 2913 2975 3322 
Q 2975 3731 2742 3939 
Q 2509 4147 2053 4147 
L 1259 4147 
z
" transform="scale(0.015625)"/>
       <path id="DejaVuSans-4d" d="M 628 4666 
L 1569 4666 
L 2759 1491 
L 3956 4666 
L 4897 4666 
L 4897 0 
L 4281 0 
L 4281 4097 
L 3078 897 
L 2444 897 
L 1241 4097 
L 1241 0 
L 628 0 
L 628 4666 
z
" transform="scale(0.015625)"/>
       <path id="DejaVuSans-53" d="M 3425 4513 
L 3425 3897 
Q 3066 4069 2747 4153 
Q 2428 4238 2131 4238 
Q 1616 4238 1336 4038 
Q 1056 3838 1056 3469 
Q 1056 3159 1242 3001 
Q 1428 2844 1947 2747 
L 2328 2669 
Q 3034 2534 3370 2195 
Q 3706 1856 3706 1288 
Q 3706 609 3251 259 
Q 2797 -91 1919 -91 
Q 1588 -91 1214 -16 
Q 841 59 441 206 
L 441 856 
Q 825 641 1194 531 
Q 1563 422 1919 422 
Q 2459 422 2753 634 
Q 3047 847 3047 1241 
Q 3047 1584 2836 1778 
Q 2625 1972 2144 2069 
L 1759 2144 
Q 1053 2284 737 2584 
Q 422 2884 422 3419 
Q 422 4038 858 4394 
Q 1294 4750 2059 4750 
Q 2388 4750 2728 4690 
Q 3069 4631 3425 4513 
z
" transform="scale(0.015625)"/>
       <path id="DejaVuSans-45" d="M 628 4666 
L 3578 4666 
L 3578 4134 
L 1259 4134 
L 1259 2753 
L 3481 2753 
L 3481 2222 
L 1259 2222 
L 1259 531 
L 3634 531 
L 3634 0 
L 628 0 
L 628 4666 
z
" transform="scale(0.015625)"/>
      </defs>
      <use xlink:href="#DejaVuSans-52"/>
      <use xlink:href="#DejaVuSans-4d" x="69.482422"/>
      <use xlink:href="#DejaVuSans-53" x="155.761719"/>
      <use xlink:href="#DejaVuSans-45" x="219.238281"/>
     </g>
    </g>
   </g>
   <g id="line2d_31">
    <path d="M 92.982226 75.24 
L 93.444307 90.119572 
L 94.36847 110.776028 
L 95.754713 147.128617 
L 96.216795 157.780732 
L 97.140957 169.235782 
L 97.603038 177.705821 
L 98.065119 180.458694 
L 98.989282 193.398535 
L 99.451363 205.179374 
L 100.375525 215.080183 
L 101.299688 230.664388 
L 101.761769 233.852327 
L 102.22385 239.533509 
L 102.685931 242.025824 
L 103.148012 248.615795 
L 103.610094 251.697884 
L 104.072175 258.086088 
L 104.534256 261.099344 
L 104.996337 262.321745 
L 105.458418 266.135459 
L 106.844662 281.966112 
L 107.306743 284.362327 
L 107.768824 287.419992 
L 108.230905 291.560241 
L 108.692987 292.043096 
L 109.155068 294.510332 
L 109.617149 298.245051 
L 110.07923 299.793129 
L 111.003393 307.658671 
L 111.465474 310.419521 
L 111.927555 310.721786 
L 112.389636 312.991106 
L 112.851717 314.007266 
L 113.313798 313.507952 
L 113.77588 313.226651 
L 114.237961 316.322983 
L 114.700042 317.846528 
L 115.162123 317.945207 
L 115.624204 323.036434 
L 116.086286 325.912578 
L 117.010448 332.62842 
L 117.472529 333.751092 
L 118.396692 337.570981 
L 119.320854 341.135279 
L 119.782935 341.850753 
L 120.245016 343.215791 
L 122.093341 346.106476 
L 123.017503 349.729212 
L 123.479585 352.600464 
L 123.941666 353.767592 
L 124.403747 353.970085 
L 124.865828 355.205451 
L 125.327909 356.907179 
L 126.252072 358.379796 
L 126.714153 358.812933 
L 127.176234 360.194147 
L 127.638315 359.760227 
L 128.100396 360.250201 
L 128.562478 361.452701 
L 129.024559 361.4628 
L 129.948721 363.133427 
L 132.259127 366.986695 
L 132.721208 368.390494 
L 133.18329 368.57082 
L 134.107452 371.284049 
L 134.569533 371.837455 
L 135.493695 373.239072 
L 135.955777 373.689055 
L 137.34202 376.650748 
L 138.266183 377.946232 
L 138.728264 378.175443 
L 139.190345 377.874853 
L 139.652426 378.416426 
L 140.576589 380.136708 
L 141.500751 380.409489 
L 141.962832 380.731608 
L 142.424913 381.686764 
L 142.886994 381.956631 
L 143.349076 382.449786 
L 143.811157 383.436068 
L 144.273238 383.465586 
L 144.735319 383.278198 
L 145.1974 384.610165 
L 145.659482 384.383115 
L 146.121563 385.501778 
L 146.583644 385.605239 
L 147.507806 386.660736 
L 147.969888 387.496744 
L 148.89405 388.437597 
L 149.818212 389.185421 
L 150.280293 389.215766 
L 150.742375 389.855469 
L 151.204456 390.036991 
L 151.666537 390.754256 
L 152.128618 391.18826 
L 153.052781 390.758516 
L 154.439024 391.443439 
L 154.901105 392.599927 
L 155.363187 393.312812 
L 155.825268 394.584556 
L 156.287349 394.956925 
L 156.74943 396.053075 
L 157.211511 396.770034 
L 157.673592 397.166444 
L 158.597755 398.555295 
L 159.059836 398.604022 
L 159.521917 397.675369 
L 161.370242 399.145224 
L 161.832323 399.187058 
L 162.294404 399.566868 
L 162.756486 400.495295 
L 163.218567 400.475876 
L 163.680648 401.131982 
L 164.142729 401.204821 
L 165.066891 401.917683 
L 165.528973 403.547476 
L 165.991054 403.345437 
L 166.453135 403.766682 
L 166.915216 404.555282 
L 167.377297 404.756971 
L 167.839379 406.077783 
L 168.30146 406.574107 
L 169.225622 406.966276 
L 170.149784 407.525095 
L 170.611866 407.369428 
L 171.073947 408.0441 
L 171.536028 407.535571 
L 171.998109 407.997477 
L 172.922272 408.062751 
L 173.384353 408.332932 
L 173.846434 408.290451 
L 174.770596 409.4395 
L 175.232678 409.698749 
L 175.694759 409.50873 
L 176.618921 409.968005 
L 177.081002 409.507701 
L 177.543083 409.350268 
L 178.005165 409.495358 
L 178.929327 410.782771 
L 179.853489 410.88994 
L 180.315571 410.548135 
L 180.777652 409.635075 
L 181.701814 409.442806 
L 182.163895 408.950418 
L 182.625977 409.122547 
L 183.550139 409.06908 
L 184.01222 409.370432 
L 184.474301 409.43623 
L 184.936382 409.66818 
L 185.398464 409.173673 
L 185.860545 409.177957 
L 186.322626 409.527158 
L 186.784707 409.562856 
L 187.246788 409.444275 
L 187.70887 410.006856 
L 188.633032 410.266736 
L 189.557194 410.753857 
L 190.481357 411.523777 
L 190.943438 411.721865 
L 191.405519 411.668527 
L 191.8676 412.007728 
L 192.329681 412.117325 
L 192.791763 411.837933 
L 193.253844 412.343202 
L 194.178006 412.683441 
L 194.640087 412.734424 
L 195.102169 412.220956 
L 195.56425 412.189296 
L 196.026331 412.556181 
L 196.950493 412.609858 
L 197.412575 413.124047 
L 198.336737 413.350396 
L 198.798818 413.74975 
L 200.185062 413.797353 
L 200.647143 414.160092 
L 201.109224 414.262401 
L 201.571305 414.100085 
L 202.495468 414.56705 
L 203.41963 414.997984 
L 204.805874 415.321458 
L 205.267955 415.080535 
L 205.730036 415.310375 
L 207.578361 415.60373 
L 208.040442 415.289283 
L 208.964604 415.335222 
L 209.888767 415.650139 
L 210.350848 415.501517 
L 211.27501 415.740253 
L 212.199173 415.729607 
L 212.661254 415.858386 
L 213.123335 415.753431 
L 213.585416 416.16228 
L 214.509578 416.315479 
L 214.97166 416.253698 
L 215.895822 416.470593 
L 216.357903 416.430703 
L 216.819984 416.580542 
L 217.282066 416.402586 
L 217.744147 416.369507 
L 218.206228 416.496015 
L 218.668309 416.451272 
L 219.592472 416.914778 
L 220.978715 417.047794 
L 221.440796 417.134324 
L 221.902877 416.408037 
L 222.364959 416.175739 
L 222.82704 416.676219 
L 223.289121 416.794391 
L 223.751202 416.792881 
L 224.213283 416.913878 
L 224.675365 417.250607 
L 225.137446 417.216032 
L 225.599527 417.661039 
L 226.523689 417.854083 
L 226.985771 417.588166 
L 227.909933 417.669509 
L 228.372014 417.922814 
L 229.296176 417.972494 
L 229.758258 418.322385 
L 231.144501 418.561627 
L 232.068664 418.65706 
L 232.992826 418.622387 
L 236.689475 419.53603 
L 237.613638 419.368975 
L 238.075719 419.367279 
L 239.924044 419.997464 
L 240.386125 419.902132 
L 241.772369 420.183466 
L 242.23445 420.57138 
L 243.620693 420.543356 
L 244.544856 421.070861 
L 245.006937 421.000614 
L 246.39318 421.279267 
L 246.855262 421.064793 
L 247.317343 421.10091 
L 248.703586 420.88846 
L 249.165668 421.031692 
L 249.627749 420.92755 
L 252.862317 421.975536 
L 253.786479 422.015177 
L 254.248561 421.867391 
L 255.172723 422.01725 
L 256.096885 422.046639 
L 256.558966 422.5121 
L 257.021048 422.50714 
L 257.94521 422.66955 
L 258.869372 422.566013 
L 259.331454 422.453955 
L 259.793535 422.708007 
L 260.255616 422.641766 
L 260.717697 423.119868 
L 261.179778 423.305121 
L 263.490184 423.316329 
L 264.876428 423.479989 
L 266.724753 423.445212 
L 267.186834 423.113267 
L 269.49724 422.705293 
L 269.959321 423.142067 
L 270.883483 423.16431 
L 271.345564 423.091421 
L 271.807646 423.401826 
L 273.193889 423.485643 
L 273.65597 423.686797 
L 274.580133 423.719874 
L 275.042214 424.040134 
L 276.428458 424.297407 
L 276.890539 424.451357 
L 277.814701 424.414795 
L 278.276782 424.28044 
L 278.738863 424.374204 
L 279.663026 424.352193 
L 280.125107 424.345815 
L 280.587188 424.186357 
L 281.049269 424.199208 
L 281.973432 423.947121 
L 282.435513 423.875778 
L 283.359675 424.056082 
L 283.821757 423.972776 
L 284.283838 423.746891 
L 285.670081 423.644985 
L 286.132162 423.397443 
L 289.366731 423.722323 
L 290.290893 423.667427 
L 291.215056 423.773036 
L 291.677137 423.728952 
L 292.139218 424.00477 
L 292.601299 423.967548 
L 293.06338 424.116496 
L 293.525461 423.908141 
L 295.835867 424.002901 
L 296.297949 424.137376 
L 298.146273 424.06762 
L 298.608355 424.250813 
L 299.070436 424.233661 
L 299.532517 424.412373 
L 300.456679 424.43024 
L 301.380842 424.513026 
L 302.767085 424.547859 
L 303.229166 424.398449 
L 307.849978 424.847014 
L 308.312059 424.751377 
L 309.236222 424.822511 
L 311.084547 424.986272 
L 311.546628 425.247677 
L 312.008709 425.185756 
L 312.47079 425.458972 
L 314.781196 425.32532 
L 315.705358 425.627517 
L 316.629521 425.834747 
L 318.015764 425.6767 
L 321.712414 425.667691 
L 322.174495 425.52319 
L 326.795307 425.717774 
L 327.257388 425.448907 
L 330.029875 425.62907 
L 330.491956 425.471194 
L 332.802362 425.659997 
L 333.264444 425.694688 
L 334.188606 425.636007 
L 336.036931 425.669582 
L 336.499012 425.5541 
L 338.347337 425.532421 
L 338.809418 425.410392 
L 340.195661 425.412115 
L 341.581905 425.40877 
L 342.506067 425.359467 
L 343.43023 425.313662 
L 343.892311 425.463867 
L 345.740636 425.491985 
L 347.126879 425.71837 
L 347.58896 425.588489 
L 349.899366 425.981521 
L 350.361447 426.00546 
L 350.823529 426.292597 
L 352.209772 426.256528 
L 355.906422 426.131461 
L 356.368503 426.113136 
L 356.830584 425.896717 
L 358.216828 425.831814 
L 359.14099 425.921149 
L 359.603071 425.754837 
L 360.065152 425.727733 
L 360.989315 425.350126 
L 362.375558 425.344403 
L 364.223883 425.285553 
L 365.148045 425.450992 
L 366.072208 425.298925 
L 366.99637 425.359151 
L 367.458451 425.496159 
L 367.920533 425.510511 
L 368.382614 425.30308 
L 372.079263 425.30785 
L 373.927588 425.781195 
L 380.858806 425.902309 
L 382.707131 425.979031 
L 383.169212 425.664363 
L 384.093374 425.765147 
L 384.555455 425.962547 
L 390.10043 425.958906 
L 391.024592 426.113029 
L 391.486673 425.996563 
L 392.410836 426.116928 
L 392.872917 426.20878 
L 393.797079 426.182746 
L 394.25916 426.151141 
L 394.721241 426.244166 
L 395.183323 426.478986 
L 404.887028 426.62992 
L 405.349109 426.964709 
L 406.273271 426.996729 
L 407.659515 427.051225 
L 408.583677 427.109683 
L 409.045758 427.19292 
L 409.507839 427.144723 
L 409.969921 427.261558 
L 410.432002 427.255131 
L 410.894083 427.399941 
L 412.742408 427.293605 
L 414.128651 427.387119 
L 415.976976 427.544165 
L 419.211544 427.515261 
L 421.059869 427.652293 
L 421.52195 427.591671 
L 422.446113 427.787875 
L 425.680681 427.353909 
L 426.604843 427.442931 
L 427.066925 427.684624 
L 427.529006 427.617917 
L 427.991087 427.770389 
L 430.763574 427.6634 
L 431.687736 427.519617 
L 432.149818 427.620904 
L 432.611899 427.586999 
L 433.536061 427.690299 
L 436.308548 427.757892 
L 437.694792 427.601355 
L 449.708903 428.04 
L 450.633065 427.926643 
L 451.095146 427.927072 
L 452.019309 427.70913 
L 453.867633 427.436449 
L 455.715958 427.068354 
L 456.640121 427.107098 
L 457.102202 427.025235 
L 457.564283 427.08906 
L 458.026364 426.867811 
L 462.647176 426.556304 
L 463.109257 426.687698 
L 470.502556 426.766586 
L 471.426719 426.778063 
L 477.895855 426.455478 
L 478.357936 426.372231 
L 480.206261 426.452775 
L 482.516667 426.475677 
L 482.978748 426.285546 
L 485.289154 426.392242 
L 486.213317 426.490675 
L 487.137479 426.48313 
L 488.061641 426.551007 
L 490.372047 426.602074 
L 492.682453 426.687686 
L 494.068697 426.679894 
L 495.45494 426.722144 
L 496.379103 426.665968 
L 499.613671 426.612146 
L 500.075752 426.73928 
L 501.924077 426.704542 
L 502.386158 426.589812 
L 505.158645 426.67947 
L 506.082808 426.622702 
L 507.469051 426.730914 
L 507.931132 426.237908 
L 510.703619 426.066251 
L 513.938188 426.226313 
L 515.786512 426.201354 
L 518.559 426.273587 
L 519.021081 426.422636 
L 525.028136 426.488708 
L 526.41438 426.505749 
L 528.262705 426.404196 
L 529.648948 426.452464 
L 530.57311 426.375692 
L 534.731841 426.471346 
L 536.118085 426.419381 
L 537.966409 426.562249 
L 538.428491 426.50418 
L 538.890572 426.660078 
L 541.200978 426.761951 
L 541.663059 426.565437 
L 547.208033 426.597959 
L 548.132196 426.536567 
L 554.139251 426.490451 
L 554.139251 426.490451 
" clip-path="url(#p120f7c6ac9)" style="fill: none; stroke: #1f77b4; stroke-width: 1.5; stroke-linecap: square"/>
   </g>
   <g id="patch_3">
    <path d="M 69.924375 445.68 
L 69.924375 57.6 
" style="fill: none; stroke: #000000; stroke-width: 0.8; stroke-linejoin: miter; stroke-linecap: square"/>
   </g>
   <g id="patch_4">
    <path d="M 577.197102 445.68 
L 577.197102 57.6 
" style="fill: none; stroke: #000000; stroke-width: 0.8; stroke-linejoin: miter; stroke-linecap: square"/>
   </g>
   <g id="patch_5">
    <path d="M 69.924375 445.68 
L 577.197102 445.68 
" style="fill: none; stroke: #000000; stroke-width: 0.8; stroke-linejoin: miter; stroke-linecap: square"/>
   </g>
   <g id="patch_6">
    <path d="M 69.924375 57.6 
L 577.197102 57.6 
" style="fill: none; stroke: #000000; stroke-width: 0.8; stroke-linejoin: miter; stroke-linecap: square"/>
   </g>
  </g>
  <g id="axes_2">
   <g id="patch_7">
    <path d="M 678.651648 445.68 
L 1185.924375 445.68 
L 1185.924375 57.6 
L 678.651648 57.6 
z
" style="fill: #ffffff"/>
   </g>
   <g id="PathCollection_2">
    <g clip-path="url(#p1ec055ab0e)">
     <use xlink:href="#m5a82d95dfa" x="1094.872871" y="423.589885" style="fill: #ff0000; stroke: #ff0000; stroke-width: 3"/>
    </g>
   </g>
   <g id="matplotlib.axis_3">
    <g id="xtick_7">
     <g id="line2d_32">
      <path d="M 724.479613 445.68 
L 724.479613 57.6 
" clip-path="url(#p1ec055ab0e)" style="fill: none; stroke: #b0b0b0; stroke-opacity: 0.5; stroke-width: 0.8; stroke-linecap: square"/>
     </g>
     <g id="line2d_33">
      <g>
       <use xlink:href="#m1a87044830" x="724.479613" y="445.68" style="stroke: #000000; stroke-width: 0.8"/>
      </g>
     </g>
     <g id="text_18">
      <!-- 1 -->
      <g transform="translate(721.298363 460.278437) scale(0.1 -0.1)">
       <use xlink:href="#DejaVuSans-31"/>
      </g>
     </g>
    </g>
    <g id="xtick_8">
     <g id="line2d_34">
      <path d="M 798.684939 445.68 
L 798.684939 57.6 
" clip-path="url(#p1ec055ab0e)" style="fill: none; stroke: #b0b0b0; stroke-opacity: 0.5; stroke-width: 0.8; stroke-linecap: square"/>
     </g>
     <g id="line2d_35">
      <g>
       <use xlink:href="#m1a87044830" x="798.684939" y="445.68" style="stroke: #000000; stroke-width: 0.8"/>
      </g>
     </g>
     <g id="text_19">
      <!-- 2 -->
      <g transform="translate(795.503689 460.278437) scale(0.1 -0.1)">
       <use xlink:href="#DejaVuSans-32"/>
      </g>
     </g>
    </g>
    <g id="xtick_9">
     <g id="line2d_36">
      <path d="M 872.890266 445.68 
L 872.890266 57.6 
" clip-path="url(#p1ec055ab0e)" style="fill: none; stroke: #b0b0b0; stroke-opacity: 0.5; stroke-width: 0.8; stroke-linecap: square"/>
     </g>
     <g id="line2d_37">
      <g>
       <use xlink:href="#m1a87044830" x="872.890266" y="445.68" style="stroke: #000000; stroke-width: 0.8"/>
      </g>
     </g>
     <g id="text_20">
      <!-- 3 -->
      <g transform="translate(869.709016 460.278437) scale(0.1 -0.1)">
       <use xlink:href="#DejaVuSans-33"/>
      </g>
     </g>
    </g>
    <g id="xtick_10">
     <g id="line2d_38">
      <path d="M 947.095593 445.68 
L 947.095593 57.6 
" clip-path="url(#p1ec055ab0e)" style="fill: none; stroke: #b0b0b0; stroke-opacity: 0.5; stroke-width: 0.8; stroke-linecap: square"/>
     </g>
     <g id="line2d_39">
      <g>
       <use xlink:href="#m1a87044830" x="947.095593" y="445.68" style="stroke: #000000; stroke-width: 0.8"/>
      </g>
     </g>
     <g id="text_21">
      <!-- 4 -->
      <g transform="translate(943.914343 460.278437) scale(0.1 -0.1)">
       <use xlink:href="#DejaVuSans-34"/>
      </g>
     </g>
    </g>
    <g id="xtick_11">
     <g id="line2d_40">
      <path d="M 1021.30092 445.68 
L 1021.30092 57.6 
" clip-path="url(#p1ec055ab0e)" style="fill: none; stroke: #b0b0b0; stroke-opacity: 0.5; stroke-width: 0.8; stroke-linecap: square"/>
     </g>
     <g id="line2d_41">
      <g>
       <use xlink:href="#m1a87044830" x="1021.30092" y="445.68" style="stroke: #000000; stroke-width: 0.8"/>
      </g>
     </g>
     <g id="text_22">
      <!-- 5 -->
      <g transform="translate(1018.11967 460.278437) scale(0.1 -0.1)">
       <defs>
        <path id="DejaVuSans-35" d="M 691 4666 
L 3169 4666 
L 3169 4134 
L 1269 4134 
L 1269 2991 
Q 1406 3038 1543 3061 
Q 1681 3084 1819 3084 
Q 2600 3084 3056 2656 
Q 3513 2228 3513 1497 
Q 3513 744 3044 326 
Q 2575 -91 1722 -91 
Q 1428 -91 1123 -41 
Q 819 9 494 109 
L 494 744 
Q 775 591 1075 516 
Q 1375 441 1709 441 
Q 2250 441 2565 725 
Q 2881 1009 2881 1497 
Q 2881 1984 2565 2268 
Q 2250 2553 1709 2553 
Q 1456 2553 1204 2497 
Q 953 2441 691 2322 
L 691 4666 
z
" transform="scale(0.015625)"/>
       </defs>
       <use xlink:href="#DejaVuSans-35"/>
      </g>
     </g>
    </g>
    <g id="xtick_12">
     <g id="line2d_42">
      <path d="M 1095.506247 445.68 
L 1095.506247 57.6 
" clip-path="url(#p1ec055ab0e)" style="fill: none; stroke: #b0b0b0; stroke-opacity: 0.5; stroke-width: 0.8; stroke-linecap: square"/>
     </g>
     <g id="line2d_43">
      <g>
       <use xlink:href="#m1a87044830" x="1095.506247" y="445.68" style="stroke: #000000; stroke-width: 0.8"/>
      </g>
     </g>
     <g id="text_23">
      <!-- 6 -->
      <g transform="translate(1092.324997 460.278437) scale(0.1 -0.1)">
       <use xlink:href="#DejaVuSans-36"/>
      </g>
     </g>
    </g>
    <g id="xtick_13">
     <g id="line2d_44">
      <path d="M 1169.711573 445.68 
L 1169.711573 57.6 
" clip-path="url(#p1ec055ab0e)" style="fill: none; stroke: #b0b0b0; stroke-opacity: 0.5; stroke-width: 0.8; stroke-linecap: square"/>
     </g>
     <g id="line2d_45">
      <g>
       <use xlink:href="#m1a87044830" x="1169.711573" y="445.68" style="stroke: #000000; stroke-width: 0.8"/>
      </g>
     </g>
     <g id="text_24">
      <!-- 7 -->
      <g transform="translate(1166.530323 460.278437) scale(0.1 -0.1)">
       <use xlink:href="#DejaVuSans-37"/>
      </g>
     </g>
    </g>
    <g id="text_25">
     <!-- log(num_trees) -->
     <g transform="translate(879.237855 476.995937) scale(0.14 -0.14)">
      <defs>
       <path id="DejaVuSans-6c" d="M 603 4863 
L 1178 4863 
L 1178 0 
L 603 0 
L 603 4863 
z
" transform="scale(0.015625)"/>
       <path id="DejaVuSans-6f" d="M 1959 3097 
Q 1497 3097 1228 2736 
Q 959 2375 959 1747 
Q 959 1119 1226 758 
Q 1494 397 1959 397 
Q 2419 397 2687 759 
Q 2956 1122 2956 1747 
Q 2956 2369 2687 2733 
Q 2419 3097 1959 3097 
z
M 1959 3584 
Q 2709 3584 3137 3096 
Q 3566 2609 3566 1747 
Q 3566 888 3137 398 
Q 2709 -91 1959 -91 
Q 1206 -91 779 398 
Q 353 888 353 1747 
Q 353 2609 779 3096 
Q 1206 3584 1959 3584 
z
" transform="scale(0.015625)"/>
       <path id="DejaVuSans-67" d="M 2906 1791 
Q 2906 2416 2648 2759 
Q 2391 3103 1925 3103 
Q 1463 3103 1205 2759 
Q 947 2416 947 1791 
Q 947 1169 1205 825 
Q 1463 481 1925 481 
Q 2391 481 2648 825 
Q 2906 1169 2906 1791 
z
M 3481 434 
Q 3481 -459 3084 -895 
Q 2688 -1331 1869 -1331 
Q 1566 -1331 1297 -1286 
Q 1028 -1241 775 -1147 
L 775 -588 
Q 1028 -725 1275 -790 
Q 1522 -856 1778 -856 
Q 2344 -856 2625 -561 
Q 2906 -266 2906 331 
L 2906 616 
Q 2728 306 2450 153 
Q 2172 0 1784 0 
Q 1141 0 747 490 
Q 353 981 353 1791 
Q 353 2603 747 3093 
Q 1141 3584 1784 3584 
Q 2172 3584 2450 3431 
Q 2728 3278 2906 2969 
L 2906 3500 
L 3481 3500 
L 3481 434 
z
" transform="scale(0.015625)"/>
       <path id="DejaVuSans-28" d="M 1984 4856 
Q 1566 4138 1362 3434 
Q 1159 2731 1159 2009 
Q 1159 1288 1364 580 
Q 1569 -128 1984 -844 
L 1484 -844 
Q 1016 -109 783 600 
Q 550 1309 550 2009 
Q 550 2706 781 3412 
Q 1013 4119 1484 4856 
L 1984 4856 
z
" transform="scale(0.015625)"/>
       <path id="DejaVuSans-29" d="M 513 4856 
L 1013 4856 
Q 1481 4119 1714 3412 
Q 1947 2706 1947 2009 
Q 1947 1309 1714 600 
Q 1481 -109 1013 -844 
L 513 -844 
Q 928 -128 1133 580 
Q 1338 1288 1338 2009 
Q 1338 2731 1133 3434 
Q 928 4138 513 4856 
z
" transform="scale(0.015625)"/>
      </defs>
      <use xlink:href="#DejaVuSans-6c"/>
      <use xlink:href="#DejaVuSans-6f" x="27.783203"/>
      <use xlink:href="#DejaVuSans-67" x="88.964844"/>
      <use xlink:href="#DejaVuSans-28" x="152.441406"/>
      <use xlink:href="#DejaVuSans-6e" x="191.455078"/>
      <use xlink:href="#DejaVuSans-75" x="254.833984"/>
      <use xlink:href="#DejaVuSans-6d" x="318.212891"/>
      <use xlink:href="#DejaVuSans-5f" x="415.625"/>
      <use xlink:href="#DejaVuSans-74" x="465.625"/>
      <use xlink:href="#DejaVuSans-72" x="504.833984"/>
      <use xlink:href="#DejaVuSans-65" x="543.697266"/>
      <use xlink:href="#DejaVuSans-65" x="605.220703"/>
      <use xlink:href="#DejaVuSans-73" x="666.744141"/>
      <use xlink:href="#DejaVuSans-29" x="718.84375"/>
     </g>
    </g>
   </g>
   <g id="matplotlib.axis_4">
    <g id="ytick_10">
     <g id="line2d_46">
      <path d="M 678.651648 391.416119 
L 1185.924375 391.416119 
" clip-path="url(#p1ec055ab0e)" style="fill: none; stroke: #b0b0b0; stroke-opacity: 0.5; stroke-width: 0.8; stroke-linecap: square"/>
     </g>
     <g id="line2d_47">
      <g>
       <use xlink:href="#mf010095c82" x="678.651648" y="391.416119" style="stroke: #000000; stroke-width: 0.8"/>
      </g>
     </g>
     <g id="text_26">
      <!-- 12.0 -->
      <g transform="translate(649.386023 395.215338) scale(0.1 -0.1)">
       <defs>
        <path id="DejaVuSans-2e" d="M 684 794 
L 1344 794 
L 1344 0 
L 684 0 
L 684 794 
z
" transform="scale(0.015625)"/>
       </defs>
       <use xlink:href="#DejaVuSans-31"/>
       <use xlink:href="#DejaVuSans-32" x="63.623047"/>
       <use xlink:href="#DejaVuSans-2e" x="127.246094"/>
       <use xlink:href="#DejaVuSans-30" x="159.033203"/>
      </g>
     </g>
    </g>
    <g id="ytick_11">
     <g id="line2d_48">
      <path d="M 678.651648 307.592263 
L 1185.924375 307.592263 
" clip-path="url(#p1ec055ab0e)" style="fill: none; stroke: #b0b0b0; stroke-opacity: 0.5; stroke-width: 0.8; stroke-linecap: square"/>
     </g>
     <g id="line2d_49">
      <g>
       <use xlink:href="#mf010095c82" x="678.651648" y="307.592263" style="stroke: #000000; stroke-width: 0.8"/>
      </g>
     </g>
     <g id="text_27">
      <!-- 12.1 -->
      <g transform="translate(649.386023 311.391482) scale(0.1 -0.1)">
       <use xlink:href="#DejaVuSans-31"/>
       <use xlink:href="#DejaVuSans-32" x="63.623047"/>
       <use xlink:href="#DejaVuSans-2e" x="127.246094"/>
       <use xlink:href="#DejaVuSans-31" x="159.033203"/>
      </g>
     </g>
    </g>
    <g id="ytick_12">
     <g id="line2d_50">
      <path d="M 678.651648 223.768408 
L 1185.924375 223.768408 
" clip-path="url(#p1ec055ab0e)" style="fill: none; stroke: #b0b0b0; stroke-opacity: 0.5; stroke-width: 0.8; stroke-linecap: square"/>
     </g>
     <g id="line2d_51">
      <g>
       <use xlink:href="#mf010095c82" x="678.651648" y="223.768408" style="stroke: #000000; stroke-width: 0.8"/>
      </g>
     </g>
     <g id="text_28">
      <!-- 12.2 -->
      <g transform="translate(649.386023 227.567626) scale(0.1 -0.1)">
       <use xlink:href="#DejaVuSans-31"/>
       <use xlink:href="#DejaVuSans-32" x="63.623047"/>
       <use xlink:href="#DejaVuSans-2e" x="127.246094"/>
       <use xlink:href="#DejaVuSans-32" x="159.033203"/>
      </g>
     </g>
    </g>
    <g id="ytick_13">
     <g id="line2d_52">
      <path d="M 678.651648 139.944552 
L 1185.924375 139.944552 
" clip-path="url(#p1ec055ab0e)" style="fill: none; stroke: #b0b0b0; stroke-opacity: 0.5; stroke-width: 0.8; stroke-linecap: square"/>
     </g>
     <g id="line2d_53">
      <g>
       <use xlink:href="#mf010095c82" x="678.651648" y="139.944552" style="stroke: #000000; stroke-width: 0.8"/>
      </g>
     </g>
     <g id="text_29">
      <!-- 12.3 -->
      <g transform="translate(649.386023 143.743771) scale(0.1 -0.1)">
       <use xlink:href="#DejaVuSans-31"/>
       <use xlink:href="#DejaVuSans-32" x="63.623047"/>
       <use xlink:href="#DejaVuSans-2e" x="127.246094"/>
       <use xlink:href="#DejaVuSans-33" x="159.033203"/>
      </g>
     </g>
    </g>
    <g id="text_30">
     <!-- log(RMSE) -->
     <g transform="translate(642.47446 287.544531) rotate(-90) scale(0.14 -0.14)">
      <use xlink:href="#DejaVuSans-6c"/>
      <use xlink:href="#DejaVuSans-6f" x="27.783203"/>
      <use xlink:href="#DejaVuSans-67" x="88.964844"/>
      <use xlink:href="#DejaVuSans-28" x="152.441406"/>
      <use xlink:href="#DejaVuSans-52" x="191.455078"/>
      <use xlink:href="#DejaVuSans-4d" x="260.9375"/>
      <use xlink:href="#DejaVuSans-53" x="347.216797"/>
      <use xlink:href="#DejaVuSans-45" x="410.693359"/>
      <use xlink:href="#DejaVuSans-29" x="473.876953"/>
     </g>
    </g>
   </g>
   <g id="line2d_54">
    <path d="M 701.709499 75.24 
L 731.79717 87.473848 
L 753.144712 95.889556 
L 769.703152 104.758933 
L 783.232383 115.912224 
L 794.671184 129.711149 
L 804.579925 136.071806 
L 813.320054 145.473227 
L 821.138365 150.236972 
L 828.210888 155.702377 
L 834.667596 163.347059 
L 840.607191 165.846768 
L 846.106397 171.461954 
L 851.226036 177.697529 
L 856.015138 188.634507 
L 864.755267 197.937782 
L 868.767343 205.295166 
L 872.573578 212.793886 
L 876.194068 215.865594 
L 879.646101 221.367702 
L 882.944659 223.792903 
L 886.102809 230.239426 
L 889.132018 233.271525 
L 892.042404 239.59126 
L 894.842938 242.588839 
L 897.541611 243.807944 
L 900.145573 247.622807 
L 902.661249 252.709269 
L 905.094429 258.779237 
L 907.450351 263.6465 
L 909.733772 266.098849 
L 911.949021 269.238599 
L 914.100051 273.508824 
L 916.19048 274.008257 
L 918.22363 276.564857 
L 920.202556 280.449743 
L 922.130075 282.065361 
L 924.008791 286.475157 
L 925.841115 290.322512 
L 927.629281 293.240212 
L 929.37537 293.560268 
L 931.081314 295.967061 
L 932.74892 297.047023 
L 934.379872 296.516185 
L 935.975747 296.217272 
L 937.538022 299.51335 
L 939.068083 301.13995 
L 940.567231 301.245412 
L 942.036692 306.704718 
L 943.477617 309.804589 
L 944.891095 313.769153 
L 946.278151 317.087783 
L 947.639754 318.311495 
L 948.976824 320.62427 
L 951.580786 324.405065 
L 952.849284 326.405085 
L 954.096462 327.193463 
L 955.323024 328.699655 
L 956.529642 329.534947 
L 958.885564 331.363539 
L 960.036057 331.898217 
L 961.168985 333.691867 
L 962.284876 335.924108 
L 963.384234 339.128679 
L 964.467543 340.434807 
L 965.535264 340.661624 
L 966.587839 342.046712 
L 967.625693 343.95844 
L 969.658843 345.616311 
L 970.654902 346.10456 
L 971.637769 347.663423 
L 972.607787 347.173381 
L 973.565288 347.726748 
L 974.510592 349.086378 
L 975.444004 349.097806 
L 976.365821 350.16913 
L 978.175797 351.914942 
L 981.668457 355.372085 
L 982.516527 356.974093 
L 983.355015 357.180102 
L 985.00409 360.285893 
L 985.815085 360.920784 
L 986.617313 361.84007 
L 987.41096 362.530933 
L 988.196209 363.048521 
L 988.973235 364.270039 
L 989.742209 365.810673 
L 990.503296 366.463171 
L 992.002444 367.961169 
L 992.740812 368.226489 
L 993.471905 367.878561 
L 994.195865 368.505527 
L 995.622935 370.500171 
L 997.023077 370.816894 
L 997.713364 371.191056 
L 998.397289 372.301515 
L 999.074968 372.615528 
L 999.746514 373.189659 
L 1000.412037 374.339069 
L 1001.071644 374.373492 
L 1001.72544 374.154981 
L 1002.373525 375.709415 
L 1003.015999 375.44424 
L 1003.652959 376.75156 
L 1004.284497 376.872572 
L 1005.531675 378.108124 
L 1006.147491 379.088041 
L 1007.363999 380.192221 
L 1008.560885 381.070902 
L 1009.152165 381.106576 
L 1009.738772 381.858979 
L 1010.320777 382.072605 
L 1010.898254 382.917255 
L 1011.47127 383.428751 
L 1012.604198 382.922274 
L 1013.164241 383.236063 
L 1013.720089 383.414775 
L 1014.271804 383.729639 
L 1014.819447 385.094635 
L 1015.363078 385.937158 
L 1015.902756 387.442275 
L 1016.438537 387.883488 
L 1016.970477 389.183644 
L 1017.498631 390.035131 
L 1018.023052 390.506293 
L 1019.060906 392.159136 
L 1019.57444 392.217184 
L 1020.084444 391.111576 
L 1022.090115 392.862186 
L 1022.583176 392.912065 
L 1023.072982 393.365043 
L 1023.559576 394.47336 
L 1024.043 394.450163 
L 1024.523295 395.234258 
L 1025.000501 395.321351 
L 1025.945805 396.174194 
L 1026.413979 398.127286 
L 1026.879217 397.884922 
L 1027.341557 398.390323 
L 1027.801035 399.33729 
L 1028.257684 399.579654 
L 1028.711541 401.168572 
L 1029.162638 401.766421 
L 1030.056689 402.239113 
L 1030.940096 402.913133 
L 1031.377887 402.72532 
L 1031.81311 403.539615 
L 1032.245796 402.925774 
L 1032.675973 403.483319 
L 1033.528917 403.562138 
L 1033.95174 403.888463 
L 1034.372168 403.837147 
L 1035.205945 405.226309 
L 1035.619346 405.540052 
L 1036.030457 405.31008 
L 1036.845908 405.866029 
L 1037.250298 405.308834 
L 1037.652496 405.118348 
L 1038.052526 405.293899 
L 1038.846173 406.853204 
L 1039.631422 406.983136 
L 1040.020952 406.568798 
L 1040.408448 405.462982 
L 1040.793931 405.275939 
L 1041.177422 405.230309 
L 1041.558941 404.634743 
L 1041.938509 404.842893 
L 1042.691869 404.778232 
L 1043.0657 405.142744 
L 1043.437658 405.222352 
L 1043.80776 405.503051 
L 1044.176025 404.904729 
L 1044.542472 404.90991 
L 1044.907118 405.332379 
L 1045.269981 405.375579 
L 1045.631078 405.232087 
L 1045.990427 405.913074 
L 1046.703945 406.227838 
L 1047.410668 406.818152 
L 1048.110723 407.752022 
L 1048.45829 407.992461 
L 1048.804236 407.927713 
L 1049.148577 408.339561 
L 1049.491327 408.472673 
L 1049.832502 408.133375 
L 1050.172115 408.747084 
L 1050.846713 409.160597 
L 1051.181727 409.222578 
L 1051.515234 408.59856 
L 1051.84725 408.560099 
L 1052.177786 409.005906 
L 1052.834475 409.07115 
L 1053.160653 409.696396 
L 1053.808738 409.971781 
L 1054.130671 410.457871 
L 1054.451213 410.507895 
L 1054.770376 410.42795 
L 1055.088172 410.515833 
L 1055.404613 410.957631 
L 1055.719711 411.08228 
L 1056.033476 410.884529 
L 1056.657053 411.453562 
L 1057.275435 411.979031 
L 1058.19345 412.373684 
L 1058.496949 412.079729 
L 1058.799212 412.360159 
L 1059.996098 412.71822 
L 1060.292327 412.334421 
L 1060.881261 412.39048 
L 1061.465558 412.774879 
L 1061.75599 412.593444 
L 1062.333467 412.884909 
L 1062.906484 412.871909 
L 1063.191341 413.02917 
L 1063.475109 412.901 
L 1063.757797 413.400393 
L 1064.319961 413.587596 
L 1064.599454 413.512097 
L 1065.155302 413.777183 
L 1065.431672 413.728424 
L 1065.707017 413.911592 
L 1065.981344 413.694057 
L 1066.25466 413.653626 
L 1066.526974 413.808258 
L 1066.798291 413.753566 
L 1067.337969 414.32032 
L 1067.606343 414.350527 
L 1067.87375 414.510978 
L 1068.140196 414.483036 
L 1068.40569 414.588904 
L 1068.670237 413.700719 
L 1068.933844 413.416837 
L 1069.196518 414.028572 
L 1069.458265 414.173079 
L 1069.719093 414.171232 
L 1069.979007 414.319219 
L 1070.238013 414.731195 
L 1070.496119 414.688885 
L 1070.75333 415.233619 
L 1071.265093 415.470036 
L 1071.519657 415.144391 
L 1071.773351 415.137795 
L 1072.02618 415.243991 
L 1072.278151 415.554225 
L 1072.77954 415.615084 
L 1073.02897 416.04383 
L 1073.772268 416.337116 
L 1074.018389 416.458172 
L 1074.751891 416.411618 
L 1076.673171 417.532698 
L 1077.145818 417.327603 
L 1077.381018 417.325521 
L 1078.31443 418.099468 
L 1078.54596 417.982342 
L 1079.236248 418.328039 
L 1079.464924 418.804933 
L 1080.146754 418.770471 
L 1080.597851 419.419385 
L 1080.822376 419.33294 
L 1081.491902 419.675894 
L 1081.713742 419.411917 
L 1081.934921 419.456364 
L 1082.594528 419.194946 
L 1082.8131 419.371183 
L 1083.031031 419.243039 
L 1084.538883 420.533446 
L 1084.96413 420.582295 
L 1085.175843 420.400193 
L 1085.597465 420.58485 
L 1086.016705 420.621068 
L 1086.225441 421.194897 
L 1086.43359 421.18878 
L 1086.848146 421.389093 
L 1087.260399 421.261388 
L 1087.46567 421.123193 
L 1087.670374 421.436532 
L 1087.874516 421.354822 
L 1088.078097 421.944756 
L 1088.281121 422.173453 
L 1088.685511 422.244418 
L 1088.886882 422.264813 
L 1089.087709 422.131301 
L 1090.083769 422.373625 
L 1090.478479 422.285561 
L 1090.675049 422.346439 
L 1090.8711 421.936608 
L 1091.261656 421.715783 
L 1091.456165 421.562607 
L 1091.650166 421.583377 
L 1091.843661 421.433184 
L 1092.036653 421.972158 
L 1092.421137 421.999615 
L 1092.612635 421.909644 
L 1092.80364 422.292862 
L 1093.373722 422.39637 
L 1093.56278 422.644834 
L 1093.939458 422.685698 
L 1094.127082 423.081452 
L 1094.687125 423.399507 
L 1094.872871 423.589885 
L 1095.242973 423.544667 
L 1095.427334 423.378527 
L 1095.611238 423.49447 
L 1095.977685 423.467251 
L 1096.160232 423.459364 
L 1096.342331 423.262206 
L 1096.523984 423.278093 
L 1096.885962 422.966494 
L 1097.066291 422.878329 
L 1097.42564 423.101164 
L 1097.604663 422.998201 
L 1097.783256 422.719077 
L 1098.139158 422.743344 
L 1098.316471 422.593182 
L 1098.493361 422.287449 
L 1098.845881 422.30841 
L 1099.196734 422.489617 
L 1099.545936 422.705308 
L 1100.239449 422.735136 
L 1100.58379 422.696913 
L 1100.755363 423.037742 
L 1100.92654 422.991738 
L 1101.097324 423.175841 
L 1101.267715 422.918322 
L 1101.945394 422.906637 
L 1102.449622 423.188349 
L 1102.783881 423.207528 
L 1102.950447 423.115425 
L 1103.116641 423.341896 
L 1103.282463 423.320688 
L 1103.447915 423.541673 
L 1103.777717 423.563769 
L 1104.10606 423.666159 
L 1104.595866 423.709245 
L 1104.758418 423.524453 
L 1105.726328 423.846035 
L 1106.046179 424.036533 
L 1106.997542 424.10775 
L 1107.311972 424.248418 
L 1107.468689 424.251713 
L 1107.625075 424.575329 
L 1107.781133 424.49866 
L 1107.936863 424.836999 
L 1108.710648 424.671473 
L 1109.171075 425.19246 
L 1109.323918 425.302567 
L 1109.780568 425.106723 
L 1110.984738 425.095561 
L 1111.133894 424.916545 
L 1111.875212 424.926172 
L 1112.022591 424.912636 
L 1112.169678 425.066459 
L 1112.316474 424.972221 
L 1112.609198 425.157616 
L 1112.755128 424.824533 
L 1113.046129 424.902884 
L 1113.191203 424.793307 
L 1113.335994 425.081875 
L 1113.624731 425.047712 
L 1113.76868 424.852138 
L 1114.198857 424.97481 
L 1114.626554 425.12901 
L 1114.910323 425.056306 
L 1115.474624 425.097905 
L 1115.755174 424.96115 
L 1116.17402 424.927979 
L 1116.313112 424.77683 
L 1116.590515 424.813397 
L 1117.14223 424.774821 
L 1117.416557 424.713761 
L 1117.689873 424.657037 
L 1117.826155 424.843063 
L 1118.368792 424.877891 
L 1118.773182 425.158354 
L 1118.90749 424.997437 
L 1119.575409 425.484485 
L 1119.708275 425.514159 
L 1119.840903 425.870173 
L 1120.23737 425.825443 
L 1121.024007 425.88895 
L 1121.154306 425.937077 
L 1121.543836 425.379371 
L 1121.673226 425.352538 
L 1121.802391 425.204342 
L 1122.188543 425.409653 
L 1122.700306 424.702193 
L 1122.95487 424.683416 
L 1123.461393 424.624963 
L 1123.587485 424.622229 
L 1123.839029 424.827116 
L 1124.089723 424.638788 
L 1124.214753 424.612891 
L 1124.588584 424.900839 
L 1124.836763 424.630108 
L 1124.960541 424.720792 
L 1125.084114 424.619456 
L 1125.330644 424.694761 
L 1125.576357 424.544392 
L 1126.065356 425.099376 
L 1126.308652 425.239605 
L 1126.551153 425.267885 
L 1127.033791 425.208728 
L 1128.463152 425.481398 
L 1128.581031 425.091438 
L 1128.816231 425.216317 
L 1129.050687 425.453688 
L 1129.284405 425.421071 
L 1129.400988 425.536728 
L 1129.633607 425.451823 
L 1129.981174 425.530783 
L 1130.32712 425.456452 
L 1130.556858 425.647514 
L 1130.671461 425.50313 
L 1131.014211 425.766234 
L 1131.241835 425.733953 
L 1131.355386 425.694766 
L 1131.468763 425.810114 
L 1131.694999 426.110367 
L 1132.033064 426.186719 
L 1133.259627 426.159478 
L 1133.810523 426.32265 
L 1133.920213 426.288604 
L 1134.139108 426.789013 
L 1134.357359 426.799358 
L 1134.683536 426.813494 
L 1135.439088 427.202764 
L 1135.653555 427.101034 
L 1135.867403 427.197416 
L 1136.080637 427.228632 
L 1136.505275 427.423729 
L 1136.822167 427.464536 
L 1136.927497 427.490614 
L 1137.137711 427.395188 
L 1137.556359 427.465138 
L 1137.660654 427.558082 
L 1137.764802 427.482754 
L 1137.97266 427.726578 
L 1138.695612 427.187381 
L 1138.900883 427.297962 
L 1139.003306 427.598259 
L 1139.105587 427.515366 
L 1139.309729 427.703142 
L 1139.614892 427.698892 
L 1140.019833 427.39323 
L 1140.221478 427.476949 
L 1140.422577 427.605311 
L 1141.022623 427.689313 
L 1141.320836 427.494787 
L 1143.664357 428.00373 
L 1143.952161 427.938725 
L 1144.143412 427.899602 
L 1144.334171 427.628713 
L 1144.714225 427.289909 
L 1145.092342 426.832771 
L 1145.280681 426.880876 
L 1145.374671 426.779238 
L 1145.468542 426.858479 
L 1145.65593 426.543062 
L 1145.842845 426.511444 
L 1146.029291 426.287031 
L 1146.215269 426.302764 
L 1146.493365 426.19727 
L 1146.678186 426.358047 
L 1146.954556 426.358329 
L 1147.138233 426.252475 
L 1147.777544 426.464827 
L 1148.049857 426.458191 
L 1148.230846 426.472434 
L 1149.485555 426.072192 
L 1149.66308 426.016315 
L 1150.105043 426.053302 
L 1150.368963 426.097248 
L 1150.544389 425.878102 
L 1151.933067 426.290717 
L 1152.019003 426.23886 
L 1152.190576 426.343809 
L 1152.787977 426.40304 
L 1153.211766 426.155476 
L 1153.549064 426.266552 
L 1153.717139 426.423582 
L 1153.801035 426.46862 
L 1154.052153 426.238841 
L 1154.468804 426.343254 
L 1154.965716 426.413923 
L 1155.130617 425.756087 
L 1155.21293 425.755235 
L 1155.377283 425.579912 
L 1155.704901 425.56198 
L 1155.868169 425.70959 
L 1156.1124 425.787975 
L 1156.355829 425.76231 
L 1156.598462 425.725231 
L 1156.759778 425.853652 
L 1156.920744 425.846598 
L 1157.081362 426.028412 
L 1157.321639 425.979333 
L 1158.116987 426.150272 
L 1158.275039 426.134552 
L 1158.590137 426.008582 
L 1158.825585 426.068453 
L 1158.982136 425.973229 
L 1159.682559 426.091875 
L 1159.914571 426.027417 
L 1160.222797 426.204645 
L 1160.299654 426.132606 
L 1160.45313 426.365945 
L 1160.759131 426.452439 
L 1160.91166 426.221468 
L 1161.063877 426.217419 
L 1161.895529 426.172784 
L 1162.419951 426.068277 
L 1162.569107 425.993626 
L 1162.866524 426.115575 
L 1162.866524 426.115575 
" clip-path="url(#p1ec055ab0e)" style="fill: none; stroke: #1f77b4; stroke-width: 1.5; stroke-linecap: square"/>
   </g>
   <g id="patch_8">
    <path d="M 678.651648 445.68 
L 678.651648 57.6 
" style="fill: none; stroke: #000000; stroke-width: 0.8; stroke-linejoin: miter; stroke-linecap: square"/>
   </g>
   <g id="patch_9">
    <path d="M 1185.924375 445.68 
L 1185.924375 57.6 
" style="fill: none; stroke: #000000; stroke-width: 0.8; stroke-linejoin: miter; stroke-linecap: square"/>
   </g>
   <g id="patch_10">
    <path d="M 678.651648 445.68 
L 1185.924375 445.68 
" style="fill: none; stroke: #000000; stroke-width: 0.8; stroke-linejoin: miter; stroke-linecap: square"/>
   </g>
   <g id="patch_11">
    <path d="M 678.651648 57.6 
L 1185.924375 57.6 
" style="fill: none; stroke: #000000; stroke-width: 0.8; stroke-linejoin: miter; stroke-linecap: square"/>
   </g>
  </g>
  <g id="text_31">
   <!-- Dependence of RMSE on num trees (GB) -->
   <g transform="translate(407.18375 22.396875) scale(0.2 -0.2)">
    <defs>
     <path id="DejaVuSans-44" d="M 1259 4147 
L 1259 519 
L 2022 519 
Q 2988 519 3436 956 
Q 3884 1394 3884 2338 
Q 3884 3275 3436 3711 
Q 2988 4147 2022 4147 
L 1259 4147 
z
M 628 4666 
L 1925 4666 
Q 3281 4666 3915 4102 
Q 4550 3538 4550 2338 
Q 4550 1131 3912 565 
Q 3275 0 1925 0 
L 628 0 
L 628 4666 
z
" transform="scale(0.015625)"/>
     <path id="DejaVuSans-70" d="M 1159 525 
L 1159 -1331 
L 581 -1331 
L 581 3500 
L 1159 3500 
L 1159 2969 
Q 1341 3281 1617 3432 
Q 1894 3584 2278 3584 
Q 2916 3584 3314 3078 
Q 3713 2572 3713 1747 
Q 3713 922 3314 415 
Q 2916 -91 2278 -91 
Q 1894 -91 1617 61 
Q 1341 213 1159 525 
z
M 3116 1747 
Q 3116 2381 2855 2742 
Q 2594 3103 2138 3103 
Q 1681 3103 1420 2742 
Q 1159 2381 1159 1747 
Q 1159 1113 1420 752 
Q 1681 391 2138 391 
Q 2594 391 2855 752 
Q 3116 1113 3116 1747 
z
" transform="scale(0.015625)"/>
     <path id="DejaVuSans-64" d="M 2906 2969 
L 2906 4863 
L 3481 4863 
L 3481 0 
L 2906 0 
L 2906 525 
Q 2725 213 2448 61 
Q 2172 -91 1784 -91 
Q 1150 -91 751 415 
Q 353 922 353 1747 
Q 353 2572 751 3078 
Q 1150 3584 1784 3584 
Q 2172 3584 2448 3432 
Q 2725 3281 2906 2969 
z
M 947 1747 
Q 947 1113 1208 752 
Q 1469 391 1925 391 
Q 2381 391 2643 752 
Q 2906 1113 2906 1747 
Q 2906 2381 2643 2742 
Q 2381 3103 1925 3103 
Q 1469 3103 1208 2742 
Q 947 2381 947 1747 
z
" transform="scale(0.015625)"/>
     <path id="DejaVuSans-63" d="M 3122 3366 
L 3122 2828 
Q 2878 2963 2633 3030 
Q 2388 3097 2138 3097 
Q 1578 3097 1268 2742 
Q 959 2388 959 1747 
Q 959 1106 1268 751 
Q 1578 397 2138 397 
Q 2388 397 2633 464 
Q 2878 531 3122 666 
L 3122 134 
Q 2881 22 2623 -34 
Q 2366 -91 2075 -91 
Q 1284 -91 818 406 
Q 353 903 353 1747 
Q 353 2603 823 3093 
Q 1294 3584 2113 3584 
Q 2378 3584 2631 3529 
Q 2884 3475 3122 3366 
z
" transform="scale(0.015625)"/>
     <path id="DejaVuSans-20" transform="scale(0.015625)"/>
     <path id="DejaVuSans-66" d="M 2375 4863 
L 2375 4384 
L 1825 4384 
Q 1516 4384 1395 4259 
Q 1275 4134 1275 3809 
L 1275 3500 
L 2222 3500 
L 2222 3053 
L 1275 3053 
L 1275 0 
L 697 0 
L 697 3053 
L 147 3053 
L 147 3500 
L 697 3500 
L 697 3744 
Q 697 4328 969 4595 
Q 1241 4863 1831 4863 
L 2375 4863 
z
" transform="scale(0.015625)"/>
     <path id="DejaVuSans-47" d="M 3809 666 
L 3809 1919 
L 2778 1919 
L 2778 2438 
L 4434 2438 
L 4434 434 
Q 4069 175 3628 42 
Q 3188 -91 2688 -91 
Q 1594 -91 976 548 
Q 359 1188 359 2328 
Q 359 3472 976 4111 
Q 1594 4750 2688 4750 
Q 3144 4750 3555 4637 
Q 3966 4525 4313 4306 
L 4313 3634 
Q 3963 3931 3569 4081 
Q 3175 4231 2741 4231 
Q 1884 4231 1454 3753 
Q 1025 3275 1025 2328 
Q 1025 1384 1454 906 
Q 1884 428 2741 428 
Q 3075 428 3337 486 
Q 3600 544 3809 666 
z
" transform="scale(0.015625)"/>
     <path id="DejaVuSans-42" d="M 1259 2228 
L 1259 519 
L 2272 519 
Q 2781 519 3026 730 
Q 3272 941 3272 1375 
Q 3272 1813 3026 2020 
Q 2781 2228 2272 2228 
L 1259 2228 
z
M 1259 4147 
L 1259 2741 
L 2194 2741 
Q 2656 2741 2882 2914 
Q 3109 3088 3109 3444 
Q 3109 3797 2882 3972 
Q 2656 4147 2194 4147 
L 1259 4147 
z
M 628 4666 
L 2241 4666 
Q 2963 4666 3353 4366 
Q 3744 4066 3744 3513 
Q 3744 3084 3544 2831 
Q 3344 2578 2956 2516 
Q 3422 2416 3680 2098 
Q 3938 1781 3938 1306 
Q 3938 681 3513 340 
Q 3088 0 2303 0 
L 628 0 
L 628 4666 
z
" transform="scale(0.015625)"/>
    </defs>
    <use xlink:href="#DejaVuSans-44"/>
    <use xlink:href="#DejaVuSans-65" x="77.001953"/>
    <use xlink:href="#DejaVuSans-70" x="138.525391"/>
    <use xlink:href="#DejaVuSans-65" x="202.001953"/>
    <use xlink:href="#DejaVuSans-6e" x="263.525391"/>
    <use xlink:href="#DejaVuSans-64" x="326.904297"/>
    <use xlink:href="#DejaVuSans-65" x="390.380859"/>
    <use xlink:href="#DejaVuSans-6e" x="451.904297"/>
    <use xlink:href="#DejaVuSans-63" x="515.283203"/>
    <use xlink:href="#DejaVuSans-65" x="570.263672"/>
    <use xlink:href="#DejaVuSans-20" x="631.787109"/>
    <use xlink:href="#DejaVuSans-6f" x="663.574219"/>
    <use xlink:href="#DejaVuSans-66" x="724.755859"/>
    <use xlink:href="#DejaVuSans-20" x="759.960938"/>
    <use xlink:href="#DejaVuSans-52" x="791.748047"/>
    <use xlink:href="#DejaVuSans-4d" x="861.230469"/>
    <use xlink:href="#DejaVuSans-53" x="947.509766"/>
    <use xlink:href="#DejaVuSans-45" x="1010.986328"/>
    <use xlink:href="#DejaVuSans-20" x="1074.169922"/>
    <use xlink:href="#DejaVuSans-6f" x="1105.957031"/>
    <use xlink:href="#DejaVuSans-6e" x="1167.138672"/>
    <use xlink:href="#DejaVuSans-20" x="1230.517578"/>
    <use xlink:href="#DejaVuSans-6e" x="1262.304688"/>
    <use xlink:href="#DejaVuSans-75" x="1325.683594"/>
    <use xlink:href="#DejaVuSans-6d" x="1389.0625"/>
    <use xlink:href="#DejaVuSans-20" x="1486.474609"/>
    <use xlink:href="#DejaVuSans-74" x="1518.261719"/>
    <use xlink:href="#DejaVuSans-72" x="1557.470703"/>
    <use xlink:href="#DejaVuSans-65" x="1596.333984"/>
    <use xlink:href="#DejaVuSans-65" x="1657.857422"/>
    <use xlink:href="#DejaVuSans-73" x="1719.380859"/>
    <use xlink:href="#DejaVuSans-20" x="1771.480469"/>
    <use xlink:href="#DejaVuSans-28" x="1803.267578"/>
    <use xlink:href="#DejaVuSans-47" x="1842.28125"/>
    <use xlink:href="#DejaVuSans-42" x="1919.771484"/>
    <use xlink:href="#DejaVuSans-29" x="1988.375"/>
   </g>
  </g>
 </g>
 <defs>
  <clipPath id="p120f7c6ac9">
   <rect x="69.924375" y="57.6" width="507.272727" height="388.08"/>
  </clipPath>
  <clipPath id="p1ec055ab0e">
   <rect x="678.651648" y="57.6" width="507.272727" height="388.08"/>
  </clipPath>
 </defs>
</svg>
